<svg width="540" height="76" viewBox="0 0 540 76" fill="none" xmlns="http://www.w3.org/2000/svg">
<path d="M0.709178 73.787L6.07565 68.3416C6.2861 68.4468 6.44394 68.6047 6.54916 68.8151C6.707 69.0782 6.78592 69.3149 6.78592 69.5254V69.6043L1.34053 75.0497C1.18269 74.9445 1.02485 74.7603 0.867016 74.4973C0.709178 74.2868 0.63026 74.0764 0.63026 73.8659L0.709178 73.787ZM8.8378 69.9989C9.10087 69.7358 9.41654 69.5517 9.78483 69.4465C10.2057 69.3413 10.6266 69.2886 11.0475 69.2886H11.521C11.4684 69.3939 11.3632 69.578 11.2054 69.8411C11.0475 70.1041 10.916 70.262 10.8108 70.3146C10.7055 70.4724 10.4951 70.7092 10.1794 71.0249C9.86375 71.3405 9.52177 71.6825 9.15348 72.0508C8.8378 72.4191 8.52213 72.7611 8.20645 73.0767C7.89078 73.3924 7.65402 73.6292 7.49619 73.787C7.33835 73.8922 7.07529 74.0501 6.707 74.2605C6.39132 74.5236 6.18087 74.7077 6.07565 74.813H5.68106C5.41799 74.813 5.18124 74.7866 4.97079 74.734C4.81295 74.734 4.6025 74.6025 4.33944 74.3394L8.8378 69.9989ZM16.2562 69.2886L11.1264 74.3394C10.916 74.6025 10.6792 74.734 10.4162 74.734C10.2057 74.7866 9.94266 74.813 9.62699 74.813H8.8378L14.2043 69.2886H16.2562ZM20.6756 69.2886L15.6248 74.3394H13.5729L18.6237 69.2886H20.6756ZM25.7264 69.0519L20.6756 74.1027C20.4125 74.3131 20.1495 74.4184 19.8864 74.4184C19.6234 74.471 19.3603 74.4973 19.0972 74.4973C19.0446 74.4973 18.9131 74.471 18.7026 74.4184C18.4922 74.3657 18.3607 74.3394 18.308 74.3394L23.3588 69.2886C23.5693 69.2886 23.7797 69.2623 23.9902 69.2097C24.4111 69.1045 24.7531 69.0519 25.0161 69.0519H25.4107H25.7264ZM30.1458 69.0519V69.2886L25.7264 73.787C25.4633 73.9975 25.174 74.1027 24.8583 74.1027C24.5426 74.1027 24.2533 74.1027 23.9902 74.1027H22.9642L28.094 69.0519H30.1458ZM35.5123 68.3416L30.7772 73.0767C30.5141 73.1294 30.2774 73.182 30.0669 73.2346C29.5408 73.3398 29.2251 73.3924 29.1199 73.3924H28.7253H28.4096L33.1448 68.5784C33.3026 68.4731 33.5657 68.3942 33.9339 68.3416C34.3022 68.3416 34.5916 68.3416 34.8021 68.3416H35.5123ZM5.52322 66.2897L-0.00108986 71.7351C-0.00108986 71.5773 0.0515226 71.209 0.156748 70.6303C0.261972 70.1041 0.314585 69.7622 0.314585 69.6043C0.41981 69.5517 0.498729 69.4465 0.551341 69.2886C0.603953 69.1308 0.656566 69.0519 0.709178 69.0519L5.04971 64.5535L5.52322 66.2897ZM6.78592 64.9481C6.78592 64.5798 6.78592 63.6591 6.78592 62.186C6.83853 60.7128 6.89114 59.1607 6.94375 57.5298C6.99637 55.8462 7.02267 54.2941 7.02267 52.8736C7.07529 51.4004 7.10159 50.4797 7.10159 50.1114C7.10159 48.9539 7.10159 47.1651 7.10159 44.7449C7.1542 42.2721 7.18051 39.51 7.18051 36.4585C7.18051 33.3543 7.18051 30.0924 7.18051 26.6726C7.18051 23.2527 7.18051 20.0171 7.18051 16.9656C7.18051 13.8614 7.1542 11.0993 7.10159 8.67909C7.10159 6.2063 7.10159 4.36487 7.10159 3.15478C7.25943 2.89172 7.5488 2.68127 7.9697 2.52343C8.44321 2.36559 8.73258 2.23406 8.8378 2.12884C9.15348 2.12884 9.6796 2.12884 10.4162 2.12884C11.2054 2.12884 12.0209 2.12884 12.8627 2.12884C13.7045 2.07623 14.4936 2.04992 15.2302 2.04992C16.0194 2.04992 16.5718 2.04992 16.8875 2.04992C19.3603 2.04992 22.0172 2.07623 24.8583 2.12884C27.6994 2.12884 30.4089 2.44451 32.9869 3.07586C35.6175 3.6546 37.9325 4.70685 39.9318 6.23261C41.9837 7.70576 43.4305 9.94179 44.2723 12.9407C44.3775 13.2564 44.5091 13.7562 44.6669 14.4402C44.8773 15.1241 44.9826 15.4924 44.9826 15.545V17.518C44.9826 19.149 44.8247 20.6484 44.5091 22.0163C44.246 23.3843 43.5883 24.7522 42.5361 26.1201C42.3782 26.3306 42.0889 26.6989 41.668 27.225C41.2997 27.6985 40.8788 28.2246 40.4053 28.8034C39.9318 29.3821 39.4846 29.9345 39.0637 30.4606C38.6428 30.9868 38.3534 31.3551 38.1956 31.5655C38.3534 31.6181 38.6954 31.8286 39.2215 32.1969C39.7476 32.5125 40.0896 32.723 40.2474 32.8282C40.3001 32.8808 40.4842 33.0387 40.7999 33.3017C41.1155 33.5648 41.4312 33.8542 41.7469 34.1698C42.0626 34.4855 42.3519 34.8012 42.615 35.1169C42.9307 35.3799 43.1411 35.5377 43.2464 35.5904C43.3516 35.5904 43.5357 35.6693 43.7988 35.8271C44.0618 35.985 44.2197 36.1165 44.2723 36.2217C44.3249 36.2743 44.3775 36.4322 44.4301 36.6952C44.5354 36.9583 44.588 37.1161 44.588 37.1687C44.588 37.2213 44.6669 37.3529 44.8247 37.5633C44.9826 37.7212 45.1404 37.9053 45.2982 38.1158C45.4561 38.2736 45.6139 38.4314 45.7717 38.5893C45.9296 38.7471 46.0085 38.8523 46.0085 38.9049C46.0611 38.9576 46.1137 39.1417 46.1663 39.4574C46.2716 39.7204 46.3242 39.8783 46.3242 39.9309C46.3768 40.0361 46.5346 40.2729 46.7977 40.6412C47.0608 41.0094 47.2186 41.2462 47.2712 41.3514V41.4303V41.6671C47.2712 41.7197 47.2186 41.8776 47.1134 42.1406C47.0608 42.4037 47.0344 42.5878 47.0344 42.693C47.0344 42.7457 47.0608 42.9035 47.1134 43.1666C47.2186 43.4296 47.2712 43.5875 47.2712 43.6401C47.3764 43.7453 47.4553 43.982 47.508 44.3503C47.5606 44.666 47.6395 44.8765 47.7447 44.9817C47.7973 45.2447 47.8762 45.7183 47.9815 46.4022C48.0867 47.0336 48.2182 47.7175 48.3761 48.4541C48.5339 49.1381 48.6654 49.822 48.7707 50.506C48.8759 51.1373 48.9548 51.5582 49.0074 51.7687V51.9265V52.1633C49.0074 52.2685 48.9548 52.479 48.8496 52.7946C48.7444 53.1103 48.6391 53.4786 48.5339 53.8995C48.4287 54.2678 48.3235 54.6361 48.2182 55.0044C48.113 55.3726 48.0341 55.6357 47.9815 55.7935C47.5606 57.4771 46.7451 59.0818 45.535 60.6076C44.3775 62.1333 43.0359 63.3434 41.5101 64.2378C39.2478 65.6584 36.7487 66.5528 34.0129 66.9211C31.3296 67.2894 28.699 67.5261 26.121 67.6313C25.4896 67.6313 24.4111 67.6577 22.8853 67.7103C21.4122 67.7629 19.8075 67.7892 18.0713 67.7892C16.3877 67.8418 14.783 67.8944 13.2572 67.947C11.7841 67.9996 10.7319 68.0259 10.1005 68.0259C9.83744 68.1838 9.60068 68.2627 9.39023 68.2627C9.17978 68.3153 8.91672 68.3416 8.60105 68.3416C8.02231 68.3416 7.68033 68.0522 7.5751 67.4735C7.46988 66.8948 7.31204 66.395 7.10159 65.9741C7.10159 65.9214 7.04898 65.8688 6.94375 65.8162C6.83853 65.711 6.78592 65.6321 6.78592 65.5795V65.4216V64.9481ZM5.52322 59.8184V61.9492L0.314585 67V64.9481L5.52322 59.8184ZM5.52322 55.1622C5.52322 55.2674 5.54952 55.5042 5.60214 55.8725C5.70736 56.1881 5.75997 56.3986 5.75997 56.5038V56.6617V56.8195C5.70736 56.9773 5.54952 57.2404 5.28646 57.6087C5.0234 57.9244 4.86556 58.1348 4.81295 58.24C4.65511 58.3453 4.41836 58.582 4.10268 58.9503C3.78701 59.266 3.44503 59.6079 3.07674 59.9762C2.70845 60.2919 2.34016 60.6076 1.97188 60.9233C1.6562 61.2389 1.44575 61.4494 1.34053 61.5546C1.28792 61.6598 1.13008 61.7914 0.867016 61.9492C0.603953 62.107 0.41981 62.2123 0.314585 62.2649V60.213L5.52322 55.1622ZM5.75997 50.4271V51.1373C5.75997 51.3478 5.73367 51.6372 5.68106 52.0054C5.68106 52.3737 5.62844 52.6368 5.52322 52.7946L0.314585 57.8454V55.7935L5.75997 50.4271ZM21.9383 55.4779H23.0432H24.7005C25.1214 55.4779 25.7527 55.4253 26.5945 55.32C27.4889 55.2148 27.9887 55.1622 28.094 55.1622C28.8305 54.9517 29.5671 54.6098 30.3037 54.1363C31.0929 53.6627 31.7768 53.084 32.3556 52.4C32.9869 51.7161 33.4867 50.9795 33.855 50.1903C34.2759 49.4011 34.4864 48.5856 34.4864 47.7438C34.4864 47.3756 34.4338 46.981 34.3285 46.5601C34.2759 46.0865 34.0918 45.692 33.7761 45.3763C32.8291 44.2188 31.8294 43.3507 30.7772 42.772C29.7249 42.1406 28.4886 41.6671 27.068 41.3514C26.7523 41.2988 26.3314 41.2199 25.8053 41.1147C25.2792 40.9568 24.7268 40.8253 24.148 40.7201C23.6219 40.6149 23.1221 40.5359 22.6486 40.4833C22.2277 40.3781 21.9909 40.3255 21.9383 40.3255C21.8331 40.2729 21.5963 40.2466 21.228 40.2466C20.8598 40.2466 20.623 40.2466 20.5178 40.2466C20.5178 42.0354 20.5967 43.9557 20.7545 46.0076C20.9124 48.0595 21.0965 49.9799 21.307 51.7687C21.307 51.8213 21.3596 51.9791 21.4648 52.2422C21.57 52.5053 21.6226 52.6894 21.6226 52.7946V55.1622L21.9383 55.4779ZM5.91781 46.0076C5.91781 46.2707 5.8652 46.639 5.75997 47.1125C5.70736 47.586 5.62844 47.8754 5.52322 47.9806L0.314585 53.1892V52.7946V52.479C0.41981 52.2159 0.498729 51.8739 0.551341 51.453C0.603953 51.0321 0.656566 50.7954 0.709178 50.7428L5.52322 46.0076H5.91781ZM32.4345 46.4022C32.908 46.6127 33.1448 46.981 33.1448 47.5071V47.7438C33.0921 47.7965 33.0132 47.9017 32.908 48.0595C32.8554 48.2174 32.8028 48.3226 32.7502 48.3752L27.7783 53.3471L27.068 51.7687L32.4345 46.4022ZM25.0161 49.4011L30.1458 44.3503H30.2248C30.2774 44.3503 30.3037 44.3503 30.3037 44.3503C30.3563 44.2977 30.4089 44.2714 30.4615 44.2714C30.8298 44.2714 31.1455 44.5082 31.4085 44.9817L26.121 50.4271H25.8842H25.7264C25.6212 50.3745 25.4896 50.2692 25.3318 50.1114C25.174 49.9536 25.0687 49.822 25.0161 49.7168V49.559V49.4011ZM22.5697 47.586C22.5697 47.4808 22.5697 47.3756 22.5697 47.2703C22.6223 47.1651 22.6486 47.0862 22.6486 47.0336L26.6734 42.9298H27.3048C27.41 42.9298 27.5941 42.9298 27.8572 42.9298C28.1729 42.9298 28.357 43.0613 28.4096 43.3244L22.9642 48.6909C22.7538 48.6383 22.6223 48.4804 22.5697 48.2174C22.5697 47.9017 22.5697 47.6912 22.5697 47.586ZM5.75997 41.3514V43.3244L0.709178 48.3752V46.4022L5.75997 41.3514ZM21.9383 43.7979C21.9383 43.0613 22.254 42.5878 22.8853 42.3774C23.5167 42.1669 24.1217 42.0617 24.7005 42.0617V42.693L22.3329 44.9817C22.1224 44.7712 21.9909 44.5871 21.9383 44.4293C21.9383 44.2714 21.9383 44.061 21.9383 43.7979ZM5.75997 36.6163C5.75997 36.6689 5.78628 36.8268 5.83889 37.0898C5.89151 37.3529 5.91781 37.537 5.91781 37.6422C5.91781 37.7475 5.89151 37.9316 5.83889 38.1947C5.78628 38.4051 5.75997 38.5367 5.75997 38.5893C5.75997 38.6945 5.62844 38.9049 5.36538 39.2206C5.10232 39.5363 4.91818 39.7731 4.81295 39.9309C4.65511 40.0887 4.39205 40.3518 4.02376 40.7201C3.70809 41.0358 3.36611 41.3777 2.99782 41.746C2.62953 42.0617 2.28755 42.3774 1.97188 42.693C1.6562 43.0087 1.44575 43.2192 1.34053 43.3244C1.28792 43.3244 1.18269 43.377 1.02485 43.4822C0.919628 43.5875 0.814403 43.6401 0.709178 43.6401V41.6671L5.75997 36.6163ZM5.75997 32.1179V34.1698L0.709178 39.2206V37.1687L5.75997 32.1179ZM5.75997 27.3828V29.4347L0.709178 34.5644V32.5915L5.75997 27.3828ZM5.75997 23.0423V25.0942L0.709178 30.145V28.0931L5.75997 23.0423ZM21.307 25.8044C21.57 26.3832 21.8594 26.8567 22.1751 27.225C22.4907 27.5933 23.0169 27.7774 23.7534 27.7774H24.3848L27.6994 26.1201C28.0677 25.9097 28.4886 25.6729 28.9621 25.4099C29.4356 25.1468 29.8828 24.8574 30.3037 24.5417C30.7772 24.1735 31.1455 23.8052 31.4085 23.4369C31.7242 23.016 31.8821 22.5425 31.8821 22.0163C31.8821 21.9637 31.8558 21.8585 31.8031 21.7007C31.7505 21.5428 31.7242 21.4113 31.7242 21.3061C30.1985 19.6225 28.6464 18.3335 27.068 17.4391C25.5423 16.492 23.5693 16.0185 21.1491 16.0185H20.9124C20.8598 16.0185 20.8071 16.0448 20.7545 16.0974C20.7019 16.1501 20.6756 16.2027 20.6756 16.2553V18.0704V20.0434C20.6756 20.2538 20.7019 20.6484 20.7545 21.2272C20.8071 21.7533 20.8598 22.332 20.9124 22.9634C21.0176 23.5421 21.0965 24.1208 21.1491 24.6996C21.2017 25.2257 21.2543 25.594 21.307 25.8044ZM22.6486 24.3839L27.6994 19.3331L28.7253 20.3591L23.3588 25.8044H23.201C22.9379 25.8044 22.7801 25.6992 22.7275 25.4888C22.6749 25.2257 22.6486 25.0153 22.6486 24.8574V24.3839ZM5.75997 18.3072C5.75997 18.3598 5.78628 18.5176 5.83889 18.7807C5.89151 19.0437 5.91781 19.2279 5.91781 19.3331C5.91781 19.4383 5.89151 19.5436 5.83889 19.6488C5.83889 19.754 5.83889 19.8592 5.83889 19.9645C5.78628 20.1223 5.75997 20.2538 5.75997 20.3591C5.75997 20.4117 5.62844 20.6221 5.36538 20.9904C5.10232 21.3587 4.91818 21.6218 4.81295 21.7796C4.65511 21.8848 4.39205 22.1216 4.02376 22.4899C3.70809 22.8055 3.36611 23.1475 2.99782 23.5158C2.62953 23.8315 2.28755 24.1472 1.97188 24.4628C1.6562 24.7785 1.44575 24.989 1.34053 25.0942C1.28792 25.1468 1.18269 25.2257 1.02485 25.3309C0.919628 25.3835 0.814403 25.4099 0.709178 25.4099V23.358L5.75997 18.3072ZM30.1458 21.7796C30.1985 21.7796 30.2511 21.8059 30.3037 21.8585L30.4615 22.0163V22.2531C30.4615 22.5688 30.1722 22.9108 29.5934 23.279C29.0673 23.6473 28.6727 23.9104 28.4096 24.0682C28.2518 24.1735 27.9098 24.3576 27.3837 24.6207C26.8576 24.8837 26.5156 25.0416 26.3578 25.0942L29.7513 21.7796C29.8039 21.7796 29.8302 21.7533 29.8302 21.7007C29.8302 21.7007 29.8565 21.6744 29.9091 21.6218L30.1458 21.7796ZM24.3848 17.9915H24.4637C24.5163 17.9915 24.5426 17.9915 24.5426 17.9915C24.5952 17.9389 24.6478 17.9126 24.7005 17.9126C24.9109 17.9126 25.1477 17.9652 25.4107 18.0704C25.6738 18.123 25.8053 18.3072 25.8053 18.6228C25.8053 18.6755 25.779 18.7544 25.7264 18.8596C25.7264 18.9122 25.7264 18.9648 25.7264 19.0174C25.6212 19.1227 25.437 19.3068 25.174 19.5699C24.9635 19.8329 24.7005 20.1223 24.3848 20.438C24.1217 20.701 23.8324 20.9641 23.5167 21.2272C23.2536 21.4902 23.0695 21.6744 22.9642 21.7796C22.9116 21.7796 22.8064 21.8322 22.6486 21.9374C22.5433 21.99 22.4381 22.0163 22.3329 22.0163V20.0434L24.3848 17.9915ZM5.75997 13.9666V16.0185L0.709178 21.0693V19.0174L5.75997 13.9666ZM22.3329 17.5969L21.9383 17.9915V17.5969H22.3329ZM5.75997 9.23152V11.2045L0.709178 16.2553V14.2823L5.75997 9.23152ZM5.75997 4.81207V5.68018C5.75997 5.94324 5.75997 6.2063 5.75997 6.46937C5.81259 6.67982 5.73367 6.91657 5.52322 7.17963L0.709178 11.9148H0.314585V10.2575L5.75997 4.81207ZM88.23 68.5784L82.8635 74.1027H80.8906L86.1781 68.5784H88.23ZM92.4127 69.0519V69.2886L87.9143 73.787C87.6513 73.9975 87.3619 74.1027 87.0462 74.1027C86.7832 74.1027 86.4938 74.1027 86.1781 74.1027H85.2311L90.3608 69.0519H92.4127ZM81.8376 68.3416H83.5738V68.5784L78.4441 73.787H76.7868V73.3924L81.8376 68.3416ZM98.0159 68.0259L93.9911 72.0508C93.9911 72.1034 93.8069 72.2086 93.4386 72.3665C93.0703 72.5243 92.8073 72.6558 92.6494 72.7611C92.5442 72.8137 92.2286 72.9189 91.7024 73.0767C91.1763 73.2872 90.8343 73.3924 90.6765 73.3924L95.4116 68.5784C95.5168 68.5784 95.6484 68.5521 95.8062 68.4995C95.9114 68.4468 96.0166 68.4205 96.1219 68.4205C96.2271 68.4205 96.3323 68.3942 96.4375 68.3416C96.5428 68.2364 96.7532 68.1575 97.0689 68.1049C97.3846 68.0522 97.595 68.0259 97.7002 68.0259H97.937H98.0159ZM78.1284 67.6313H79.8646V68.0259L74.8138 73.0767C74.7612 73.1294 74.6823 73.1557 74.5771 73.1557H74.1825C74.0773 73.1557 73.8668 73.1294 73.5511 73.0767C73.2881 73.0767 73.1302 72.9715 73.0776 72.7611L78.1284 67.6313ZM69.6841 71.4194L69.763 71.3405L74.8138 66.2897H75.1295C75.2873 66.2897 75.4715 66.316 75.6819 66.3687C75.945 66.3687 76.0765 66.5002 76.0765 66.7632V67C76.0765 67 76.0239 67.1052 75.9187 67.3157C75.8661 67.4209 75.8398 67.5261 75.8398 67.6313L71.3414 72.0508C71.2888 72.1034 71.1836 72.156 71.0257 72.2086C70.9205 72.3139 70.8416 72.3665 70.789 72.3665C70.6311 72.3665 70.3944 72.2876 70.0787 72.1297C69.8156 71.9719 69.6841 71.7877 69.6841 71.5773V71.4194ZM66.6063 69.9989L72.0517 64.5535L72.3673 64.7114C72.5778 64.8166 72.7093 64.8955 72.7619 64.9481L73.0776 65.2638V65.5005V65.5795L68.0268 70.7092H67.7111C67.5007 70.7092 67.2639 70.6829 67.0009 70.6303C66.7378 70.5776 66.6063 70.4461 66.6063 70.2357V69.9989ZM69.3684 62.5806H69.5263H69.763C69.8156 62.6332 69.9209 62.7384 70.0787 62.8962C70.2892 63.0541 70.3944 63.1856 70.3944 63.2908C70.3944 63.2908 70.4207 63.3434 70.4733 63.4487L70.3944 63.5276L65.0279 69.0519L64.002 68.0259L69.3684 62.5806ZM61.2398 35.5904C62.029 31.9075 63.2917 28.7507 65.0279 26.1201C66.8167 23.4369 68.9738 21.2535 71.4992 19.5699C74.0246 17.8863 76.8394 16.6499 79.9435 15.8607C83.1003 15.0189 86.4675 14.598 90.0451 14.598H92.4127C95.7799 14.9663 98.6999 15.9659 101.173 17.5969C103.645 19.1753 105.697 21.1745 107.328 23.5947C109.012 26.0149 110.248 28.7244 111.038 31.7233C111.879 34.7223 112.3 37.8001 112.3 40.9568C112.3 42.5878 112.248 44.2188 112.142 45.8498C112.037 47.4808 111.853 49.1118 111.59 50.7428C111.169 52.9525 110.459 54.8728 109.459 56.5038C108.459 58.1348 107.249 59.8184 105.829 61.5546C105.25 62.2386 104.487 62.9225 103.54 63.6065C102.593 64.2378 101.541 64.8429 100.383 65.4216C99.2786 65.9478 98.1475 66.395 96.99 66.7632C95.8851 67.1315 94.8855 67.3157 93.9911 67.3157H90.3608C88.2037 67.3157 86.2044 67.2104 84.363 67C82.5742 66.7369 80.6012 66.395 78.4441 65.9741C78.3915 65.9214 78.2336 65.8688 77.9706 65.8162C77.7075 65.711 77.5234 65.6321 77.4181 65.5795C77.2603 65.5269 76.9972 65.4216 76.629 65.2638C76.2607 65.106 75.8398 64.9218 75.3663 64.7114C74.9454 64.4483 74.5508 64.2115 74.1825 64.0011C73.8142 63.7906 73.5511 63.6328 73.3933 63.5276C73.2881 63.475 73.1039 63.396 72.8409 63.2908C72.5778 63.133 72.42 63.0278 72.3673 62.9751C72.1569 62.7647 71.7886 62.4227 71.2625 61.9492C70.789 61.4231 70.2628 60.8706 69.6841 60.2919C69.158 59.6606 68.6319 59.1081 68.1057 58.6346C67.5796 58.1085 67.2113 57.7402 67.0009 57.5298C65.896 56.3723 64.949 55.0833 64.1598 53.6627C63.4232 52.1896 62.8445 50.6901 62.4236 49.1644C62.0027 47.586 61.687 46.0076 61.4766 44.4293C61.3187 42.7983 61.2398 41.1936 61.2398 39.6152V35.5904ZM61.9501 65.5795L67.3166 60.213L68.3425 61.2389L62.976 66.6054L62.8182 66.6843L62.5814 66.6054C62.5288 66.6054 62.3973 66.5265 62.1868 66.3687C62.029 66.1582 61.9501 66.0267 61.9501 65.9741L61.8712 65.8162L61.9501 65.5795ZM65.0279 57.8454H65.1068H65.3436L65.9749 58.4768V58.7135V58.7925C65.9223 58.9503 65.8171 59.1607 65.6593 59.4238C65.5014 59.6869 65.3962 59.8447 65.3436 59.8973L61.2398 64.0011C61.1872 64.0011 61.082 64.0537 60.9241 64.1589C60.7663 64.2115 60.6348 64.2378 60.5295 64.2378H60.3717H60.2928C60.1876 64.1852 60.0297 64.0011 59.8193 63.6854C59.7141 63.5276 59.6351 63.396 59.5825 63.2908L65.0279 57.8454ZM57.8463 60.5287L63.2917 55.1622C63.7652 55.4253 64.002 55.7672 64.002 56.1881V56.5038L58.5566 61.9492C58.4514 61.844 58.3198 61.6598 58.162 61.3968C58.0041 61.1337 57.8989 60.9759 57.8463 60.9233V60.7654V60.5287ZM56.5047 57.2141L61.5555 52.1633L61.7922 52.0844C62.0553 52.0844 62.1868 52.2422 62.1868 52.5579C62.2394 52.8209 62.2658 53.0314 62.2658 53.1892V53.426L56.8204 58.7925C56.6099 58.3716 56.5047 57.898 56.5047 57.3719V57.2141ZM60.5295 48.6909C60.7926 48.7961 60.9241 48.9802 60.9241 49.2433C60.9241 49.5064 60.9241 49.6905 60.9241 49.7957V50.4271L55.6366 55.7935L55.242 54.1363L60.5295 48.6909ZM76.3922 38.7471C76.3922 39.5889 76.3922 40.2729 76.3922 40.799C76.3922 41.2725 76.5237 41.9039 76.7868 42.693C76.8394 42.8509 76.9183 43.1666 77.0235 43.6401C77.1814 44.061 77.3392 44.5345 77.4971 45.0606C77.7075 45.5867 77.8917 46.1129 78.0495 46.639C78.2073 47.1651 78.3389 47.5334 78.4441 47.7438C78.4967 47.7965 78.5493 47.9017 78.6019 48.0595C78.7071 48.2174 78.7861 48.3226 78.8387 48.3752C78.9439 48.533 79.128 48.7698 79.3911 49.0855C79.7068 49.4011 80.0225 49.7168 80.3381 50.0325C80.6538 50.3482 80.9432 50.6638 81.2062 50.9795C81.5219 51.2426 81.7324 51.4004 81.8376 51.453C81.9428 51.453 82.1796 51.5845 82.5479 51.8476C82.9688 52.1107 83.3107 52.3211 83.5738 52.479C84.2052 52.8472 84.8102 53.1103 85.3889 53.2681C85.9677 53.3734 86.6253 53.426 87.3619 53.426C90.1504 53.426 92.4127 52.8472 94.1489 51.6898C95.9377 50.4797 97.3583 48.5856 98.4105 46.0076C98.8314 44.9554 99.0419 43.8242 99.0419 42.6141C99.0945 41.404 99.1208 40.2466 99.1208 39.1417C99.1208 39.0365 99.0945 38.8786 99.0419 38.6682C99.0419 38.4051 99.0419 38.2473 99.0419 38.1947C98.621 35.8271 97.6739 33.9068 96.2008 32.4336C94.7276 30.9079 92.8862 29.6978 90.6765 28.8034C90.0977 28.5403 89.4927 28.4088 88.8614 28.4088C88.2826 28.4088 87.7039 28.4088 87.1251 28.4088C83.8106 28.4088 81.1799 29.3032 79.2333 31.092C77.3392 32.8282 76.3922 35.3799 76.3922 38.7471ZM54.5317 50.4271C54.5317 50.3745 54.558 50.2692 54.6106 50.1114C54.6633 49.901 54.7159 49.7694 54.7685 49.7168L59.9771 44.666C60.0297 44.7712 60.1086 45.0606 60.2139 45.5341C60.3191 45.955 60.3454 46.2444 60.2928 46.4022C60.2928 46.4548 60.135 46.6653 59.8193 47.0336C59.5562 47.3492 59.3721 47.586 59.2668 47.7438C58.9512 48.0595 58.5566 48.4541 58.0831 48.9276C57.6096 49.3485 57.1623 49.7694 56.7414 50.1903C56.2153 50.7164 55.7155 51.2426 55.242 51.7687H54.7685C54.7159 51.7687 54.6633 51.6109 54.6106 51.2952C54.558 50.9269 54.5317 50.6375 54.5317 50.4271ZM97.4635 44.1925C97.4635 44.7712 97.2793 45.4026 96.9111 46.0865C96.5428 46.7705 96.0956 47.4282 95.5694 48.0595C95.0433 48.6909 94.4909 49.2433 93.9121 49.7168C93.3334 50.1903 92.8336 50.5323 92.4127 50.7428C92.4127 50.6901 92.3864 50.5586 92.3338 50.3482C92.2812 50.1377 92.2549 50.0062 92.2549 49.9536C92.2549 49.6905 92.2549 49.4274 92.2549 49.1644C92.3075 48.9013 92.439 48.6383 92.6494 48.3752L97.4635 43.6401V44.1925ZM59.5825 40.6412V42.693L54.5317 47.7438V45.692L59.5825 40.6412ZM92.4127 44.3503L97.7002 38.9049V39.852C97.7002 40.115 97.7002 40.3781 97.7002 40.6412C97.7529 40.8516 97.6739 41.0884 97.4635 41.3514L92.6494 46.0076C92.5968 45.9024 92.5442 45.692 92.4916 45.3763C92.439 45.008 92.4127 44.7712 92.4127 44.666V44.5082V44.3503ZM59.5825 37.879L54.5317 42.9298V42.693C54.5317 42.3248 54.558 41.9039 54.6106 41.4303C54.7159 40.9568 54.9263 40.5885 55.242 40.3255L59.5825 35.906V37.879ZM91.2289 40.9568C91.2289 40.9042 91.2552 40.8516 91.3078 40.799C91.3078 40.7464 91.3341 40.6938 91.3868 40.6412L96.4375 35.5904L96.5165 35.5114C96.5165 35.5114 96.5691 35.5377 96.6743 35.5904H96.7532C96.7532 35.6956 96.7795 35.8271 96.8321 35.985C96.9374 36.3006 96.99 36.5111 96.99 36.6163V36.7741V36.932L91.7024 42.3774C91.3868 42.0091 91.2289 41.5619 91.2289 41.0358V40.9568ZM94.7013 32.8282L95.7273 33.8542L90.3608 39.2995H90.1241H89.9662C89.861 39.2469 89.6768 39.1417 89.4138 38.9839C89.1507 38.826 88.9929 38.6945 88.9403 38.5893L94.7013 32.8282ZM91.7024 31.1709H91.7813C92.0444 31.1709 92.2812 31.2235 92.4916 31.3288C92.7021 31.434 92.8599 31.6181 92.9651 31.8812C92.9651 31.9864 92.8862 32.1706 92.7284 32.4336C92.5705 32.6441 92.4653 32.7756 92.4127 32.8282C92.2549 32.986 91.9392 33.2754 91.4657 33.6963C91.0448 34.1172 90.5976 34.5644 90.1241 35.0379C89.6505 35.5114 89.2033 35.9586 88.7824 36.3795C88.3615 36.7478 88.0722 37.0109 87.9143 37.1687L87.5987 37.3266C87.1778 37.3266 86.7042 37.0898 86.1781 36.6163L91.7024 31.1709ZM61.5555 29.5136C61.5029 29.7241 61.345 30.1713 61.082 30.8552C60.8189 31.4866 60.6348 31.9075 60.5295 32.1179C60.5295 32.2232 60.4769 32.381 60.3717 32.5915C60.3191 32.6967 60.2928 32.7756 60.2928 32.8282L56.189 36.932C56.2416 36.7741 56.3469 36.5374 56.5047 36.2217C56.6625 35.906 56.8204 35.5904 56.9782 35.2747C57.1887 34.9064 57.3728 34.5644 57.5306 34.2487C57.6885 33.9331 57.7937 33.6963 57.8463 33.5385C58.2672 32.7493 58.8459 32.0127 59.5825 31.3288C60.3717 30.5922 61.0294 29.9871 61.5555 29.5136ZM88.6246 29.8293H88.7035H88.9403C88.9929 29.8819 89.0718 29.9082 89.177 29.9082C89.3349 29.9082 89.4664 29.9345 89.5716 29.9871C89.7295 30.0397 89.861 30.0924 89.9662 30.145L90.0451 30.3028L89.9662 30.5396L84.9154 35.5904H84.5208C84.2578 35.5904 84.021 35.5904 83.8106 35.5904C83.6001 35.5377 83.3897 35.4062 83.1792 35.1958L88.6246 29.8293ZM85.9414 29.8293L80.8906 34.8801H78.8387L83.1792 30.5396C83.4949 30.2239 83.8895 30.0397 84.363 29.9871C84.8365 29.8819 85.2574 29.8293 85.6257 29.8293H85.9414ZM151.76 68.5784L146.393 74.1027H144.42L149.708 68.5784H151.76ZM155.942 69.0519V69.2886L151.444 73.787C151.181 73.9975 150.891 74.1027 150.576 74.1027C150.313 74.1027 150.023 74.1027 149.708 74.1027H148.761L153.89 69.0519H155.942ZM145.367 68.3416H147.103V68.5784L141.974 73.787H140.316V73.3924L145.367 68.3416ZM161.545 68.0259L157.521 72.0508C157.521 72.1034 157.336 72.2086 156.968 72.3665C156.6 72.5243 156.337 72.6558 156.179 72.7611C156.074 72.8137 155.758 72.9189 155.232 73.0767C154.706 73.2872 154.364 73.3924 154.206 73.3924L158.941 68.5784C159.046 68.5784 159.178 68.5521 159.336 68.4995C159.441 68.4468 159.546 68.4205 159.651 68.4205C159.757 68.4205 159.862 68.3942 159.967 68.3416C160.072 68.2364 160.283 68.1575 160.598 68.1049C160.914 68.0522 161.125 68.0259 161.23 68.0259H161.467H161.545ZM141.658 67.6313H143.394V68.0259L138.343 73.0767C138.291 73.1294 138.212 73.1557 138.107 73.1557H137.712C137.607 73.1557 137.396 73.1294 137.081 73.0767C136.818 73.0767 136.66 72.9715 136.607 72.7611L141.658 67.6313ZM133.214 71.4194L133.293 71.3405L138.343 66.2897H138.659C138.817 66.2897 139.001 66.316 139.211 66.3687C139.475 66.3687 139.606 66.5002 139.606 66.7632V67C139.606 67 139.553 67.1052 139.448 67.3157C139.396 67.4209 139.369 67.5261 139.369 67.6313L134.871 72.0508C134.818 72.1034 134.713 72.156 134.555 72.2086C134.45 72.3139 134.371 72.3665 134.319 72.3665C134.161 72.3665 133.924 72.2876 133.608 72.1297C133.345 71.9719 133.214 71.7877 133.214 71.5773V71.4194ZM130.136 69.9989L135.581 64.5535L135.897 64.7114C136.107 64.8166 136.239 64.8955 136.291 64.9481L136.607 65.2638V65.5005V65.5795L131.556 70.7092H131.241C131.03 70.7092 130.793 70.6829 130.53 70.6303C130.267 70.5776 130.136 70.4461 130.136 70.2357V69.9989ZM132.898 62.5806H133.056H133.293C133.345 62.6332 133.45 62.7384 133.608 62.8962C133.819 63.0541 133.924 63.1856 133.924 63.2908C133.924 63.2908 133.95 63.3434 134.003 63.4487L133.924 63.5276L128.557 69.0519L127.532 68.0259L132.898 62.5806ZM124.769 35.5904C125.559 31.9075 126.821 28.7507 128.557 26.1201C130.346 23.4369 132.503 21.2535 135.029 19.5699C137.554 17.8863 140.369 16.6499 143.473 15.8607C146.63 15.0189 149.997 14.598 153.575 14.598H155.942C159.309 14.9663 162.229 15.9659 164.702 17.5969C167.175 19.1753 169.227 21.1745 170.858 23.5947C172.541 26.0149 173.778 28.7244 174.567 31.7233C175.409 34.7223 175.83 37.8001 175.83 40.9568C175.83 42.5878 175.777 44.2188 175.672 45.8498C175.567 47.4808 175.383 49.1118 175.119 50.7428C174.699 52.9525 173.988 54.8728 172.989 56.5038C171.989 58.1348 170.779 59.8184 169.358 61.5546C168.78 62.2386 168.017 62.9225 167.07 63.6065C166.123 64.2378 165.071 64.8429 163.913 65.4216C162.808 65.9478 161.677 66.395 160.52 66.7632C159.415 67.1315 158.415 67.3157 157.521 67.3157H153.89C151.733 67.3157 149.734 67.2104 147.893 67C146.104 66.7369 144.131 66.395 141.974 65.9741C141.921 65.9214 141.763 65.8688 141.5 65.8162C141.237 65.711 141.053 65.6321 140.948 65.5795C140.79 65.5269 140.527 65.4216 140.159 65.2638C139.79 65.106 139.369 64.9218 138.896 64.7114C138.475 64.4483 138.08 64.2115 137.712 64.0011C137.344 63.7906 137.081 63.6328 136.923 63.5276C136.818 63.475 136.633 63.396 136.37 63.2908C136.107 63.133 135.95 63.0278 135.897 62.9751C135.686 62.7647 135.318 62.4227 134.792 61.9492C134.319 61.4231 133.792 60.8706 133.214 60.2919C132.688 59.6606 132.161 59.1081 131.635 58.6346C131.109 58.1085 130.741 57.7402 130.53 57.5298C129.426 56.3723 128.479 55.0833 127.689 53.6627C126.953 52.1896 126.374 50.6901 125.953 49.1644C125.532 47.586 125.217 46.0076 125.006 44.4293C124.848 42.7983 124.769 41.1936 124.769 39.6152V35.5904ZM125.48 65.5795L130.846 60.213L131.872 61.2389L126.506 66.6054L126.348 66.6843L126.111 66.6054C126.058 66.6054 125.927 66.5265 125.716 66.3687C125.559 66.1582 125.48 66.0267 125.48 65.9741L125.401 65.8162L125.48 65.5795ZM128.557 57.8454H128.636H128.873L129.504 58.4768V58.7135V58.7925C129.452 58.9503 129.347 59.1607 129.189 59.4238C129.031 59.6869 128.926 59.8447 128.873 59.8973L124.769 64.0011C124.717 64.0011 124.612 64.0537 124.454 64.1589C124.296 64.2115 124.164 64.2378 124.059 64.2378H123.901H123.822C123.717 64.1852 123.559 64.0011 123.349 63.6854C123.244 63.5276 123.165 63.396 123.112 63.2908L128.557 57.8454ZM121.376 60.5287L126.821 55.1622C127.295 55.4253 127.532 55.7672 127.532 56.1881V56.5038L122.086 61.9492C121.981 61.844 121.849 61.6598 121.692 61.3968C121.534 61.1337 121.428 60.9759 121.376 60.9233V60.7654V60.5287ZM120.034 57.2141L125.085 52.1633L125.322 52.0844C125.585 52.0844 125.716 52.2422 125.716 52.5579C125.769 52.8209 125.795 53.0314 125.795 53.1892V53.426L120.35 58.7925C120.139 58.3716 120.034 57.898 120.034 57.3719V57.2141ZM124.059 48.6909C124.322 48.7961 124.454 48.9802 124.454 49.2433C124.454 49.5064 124.454 49.6905 124.454 49.7957V50.4271L119.166 55.7935L118.772 54.1363L124.059 48.6909ZM139.922 38.7471C139.922 39.5889 139.922 40.2729 139.922 40.799C139.922 41.2725 140.053 41.9039 140.316 42.693C140.369 42.8509 140.448 43.1666 140.553 43.6401C140.711 44.061 140.869 44.5345 141.027 45.0606C141.237 45.5867 141.421 46.1129 141.579 46.639C141.737 47.1651 141.868 47.5334 141.974 47.7438C142.026 47.7965 142.079 47.9017 142.131 48.0595C142.237 48.2174 142.316 48.3226 142.368 48.3752C142.473 48.533 142.658 48.7698 142.921 49.0855C143.236 49.4011 143.552 49.7168 143.868 50.0325C144.183 50.3482 144.473 50.6638 144.736 50.9795C145.051 51.2426 145.262 51.4004 145.367 51.453C145.472 51.453 145.709 51.5845 146.077 51.8476C146.498 52.1107 146.84 52.3211 147.103 52.479C147.735 52.8472 148.34 53.1103 148.918 53.2681C149.497 53.3734 150.155 53.426 150.891 53.426C153.68 53.426 155.942 52.8472 157.678 51.6898C159.467 50.4797 160.888 48.5856 161.94 46.0076C162.361 44.9554 162.571 43.8242 162.571 42.6141C162.624 41.404 162.65 40.2466 162.65 39.1417C162.65 39.0365 162.624 38.8786 162.571 38.6682C162.571 38.4051 162.571 38.2473 162.571 38.1947C162.151 35.8271 161.203 33.9068 159.73 32.4336C158.257 30.9079 156.416 29.6978 154.206 28.8034C153.627 28.5403 153.022 28.4088 152.391 28.4088C151.812 28.4088 151.233 28.4088 150.655 28.4088C147.34 28.4088 144.709 29.3032 142.763 31.092C140.869 32.8282 139.922 35.3799 139.922 38.7471ZM118.061 50.4271C118.061 50.3745 118.088 50.2692 118.14 50.1114C118.193 49.901 118.245 49.7694 118.298 49.7168L123.507 44.666C123.559 44.7712 123.638 45.0606 123.743 45.5341C123.849 45.955 123.875 46.2444 123.822 46.4022C123.822 46.4548 123.664 46.6653 123.349 47.0336C123.086 47.3492 122.902 47.586 122.796 47.7438C122.481 48.0595 122.086 48.4541 121.613 48.9276C121.139 49.3485 120.692 49.7694 120.271 50.1903C119.745 50.7164 119.245 51.2426 118.772 51.7687H118.298C118.245 51.7687 118.193 51.6109 118.14 51.2952C118.088 50.9269 118.061 50.6375 118.061 50.4271ZM160.993 44.1925C160.993 44.7712 160.809 45.4026 160.441 46.0865C160.072 46.7705 159.625 47.4282 159.099 48.0595C158.573 48.6909 158.02 49.2433 157.442 49.7168C156.863 50.1903 156.363 50.5323 155.942 50.7428C155.942 50.6901 155.916 50.5586 155.863 50.3482C155.811 50.1377 155.784 50.0062 155.784 49.9536C155.784 49.6905 155.784 49.4274 155.784 49.1644C155.837 48.9013 155.969 48.6383 156.179 48.3752L160.993 43.6401V44.1925ZM123.112 40.6412V42.693L118.061 47.7438V45.692L123.112 40.6412ZM155.942 44.3503L161.23 38.9049V39.852C161.23 40.115 161.23 40.3781 161.23 40.6412C161.282 40.8516 161.203 41.0884 160.993 41.3514L156.179 46.0076C156.126 45.9024 156.074 45.692 156.021 45.3763C155.969 45.008 155.942 44.7712 155.942 44.666V44.5082V44.3503ZM123.112 37.879L118.061 42.9298V42.693C118.061 42.3248 118.088 41.9039 118.14 41.4303C118.245 40.9568 118.456 40.5885 118.772 40.3255L123.112 35.906V37.879ZM154.758 40.9568C154.758 40.9042 154.785 40.8516 154.837 40.799C154.837 40.7464 154.864 40.6938 154.916 40.6412L159.967 35.5904L160.046 35.5114C160.046 35.5114 160.099 35.5377 160.204 35.5904H160.283C160.283 35.6956 160.309 35.8271 160.362 35.985C160.467 36.3006 160.52 36.5111 160.52 36.6163V36.7741V36.932L155.232 42.3774C154.916 42.0091 154.758 41.5619 154.758 41.0358V40.9568ZM158.231 32.8282L159.257 33.8542L153.89 39.2995H153.654H153.496C153.391 39.2469 153.206 39.1417 152.943 38.9839C152.68 38.826 152.522 38.6945 152.47 38.5893L158.231 32.8282ZM155.232 31.1709H155.311C155.574 31.1709 155.811 31.2235 156.021 31.3288C156.232 31.434 156.389 31.6181 156.495 31.8812C156.495 31.9864 156.416 32.1706 156.258 32.4336C156.1 32.6441 155.995 32.7756 155.942 32.8282C155.784 32.986 155.469 33.2754 154.995 33.6963C154.574 34.1172 154.127 34.5644 153.654 35.0379C153.18 35.5114 152.733 35.9586 152.312 36.3795C151.891 36.7478 151.602 37.0109 151.444 37.1687L151.128 37.3266C150.707 37.3266 150.234 37.0898 149.708 36.6163L155.232 31.1709ZM125.085 29.5136C125.032 29.7241 124.875 30.1713 124.612 30.8552C124.348 31.4866 124.164 31.9075 124.059 32.1179C124.059 32.2232 124.006 32.381 123.901 32.5915C123.849 32.6967 123.822 32.7756 123.822 32.8282L119.719 36.932C119.771 36.7741 119.876 36.5374 120.034 36.2217C120.192 35.906 120.35 35.5904 120.508 35.2747C120.718 34.9064 120.902 34.5644 121.06 34.2487C121.218 33.9331 121.323 33.6963 121.376 33.5385C121.797 32.7493 122.375 32.0127 123.112 31.3288C123.901 30.5922 124.559 29.9871 125.085 29.5136ZM152.154 29.8293H152.233H152.47C152.522 29.8819 152.601 29.9082 152.707 29.9082C152.864 29.9082 152.996 29.9345 153.101 29.9871C153.259 30.0397 153.391 30.0924 153.496 30.145L153.575 30.3028L153.496 30.5396L148.445 35.5904H148.05C147.787 35.5904 147.551 35.5904 147.34 35.5904C147.13 35.5377 146.919 35.4062 146.709 35.1958L152.154 29.8293ZM149.471 29.8293L144.42 34.8801H142.368L146.709 30.5396C147.024 30.2239 147.419 30.0397 147.893 29.9871C148.366 29.8819 148.787 29.8293 149.155 29.8293H149.471ZM194.297 69.4465L189.246 74.4973H187.194L192.245 69.4465H194.297ZM215.92 73.1557L221.366 67.7103C221.471 67.7629 221.629 67.9207 221.839 68.1838C222.102 68.4468 222.287 68.631 222.392 68.7362C222.392 68.7888 222.339 68.894 222.234 69.0519C222.181 69.2097 222.129 69.3413 222.076 69.4465L216.946 74.4973H216.789C216.525 74.4973 216.315 74.3394 216.157 74.0238C215.999 73.7081 215.92 73.445 215.92 73.2346V73.1557ZM188.93 68.4205L189.009 68.3416C189.272 68.3416 189.509 68.4205 189.719 68.5784C189.983 68.7362 190.167 68.894 190.272 69.0519L185.221 74.1816H184.59C184.484 74.1816 184.274 74.1816 183.958 74.1816C183.695 74.1816 183.537 74.0501 183.485 73.787L188.93 68.4205ZM198.716 68.7362C199.084 68.7362 199.321 68.8414 199.426 69.0519L194.297 74.1816H192.245L197.453 69.0519C197.506 68.9993 197.611 68.9467 197.769 68.894C197.98 68.7888 198.19 68.7362 198.4 68.7362H198.716ZM203.767 69.0519V69.4465L199.426 73.787C199.163 74.0501 198.874 74.1816 198.558 74.1816C198.295 74.1816 198.006 74.1816 197.69 74.1816H196.743L201.794 69.0519H203.767ZM226.732 69.0519L222.392 73.4713C222.129 73.7344 221.734 73.9185 221.208 74.0238C220.734 74.129 220.34 74.1816 220.024 74.1816H219.63L224.365 69.4465C224.365 69.3413 224.575 69.2623 224.996 69.2097C225.47 69.1571 225.838 69.1045 226.101 69.0519H226.417H226.732ZM227.443 72.7611C227.232 73.0241 226.969 73.1557 226.653 73.1557C226.39 73.1557 226.127 73.1557 225.864 73.1557H225.075L229.81 68.4205C229.81 68.3679 229.942 68.289 230.205 68.1838C230.468 68.1312 230.678 68.0786 230.836 68.0259C230.941 68.0259 231.204 67.9733 231.625 67.8681C232.099 67.7629 232.388 67.7103 232.493 67.7103L227.443 72.7611ZM236.203 67.3157C236.203 67.3157 236.255 67.342 236.36 67.3946H236.518L231.862 72.1297C231.704 72.2876 231.52 72.3665 231.31 72.3665C231.152 72.4191 230.994 72.4454 230.836 72.4454H230.441L235.177 67.7103C235.44 67.4472 235.782 67.3157 236.203 67.3157ZM213.869 70.7092L219.314 65.4216C219.787 65.5795 220.024 65.8951 220.024 66.3687V66.6843L214.894 71.7351L214.816 71.814H214.658C214.605 71.814 214.579 71.7877 214.579 71.7351C214.526 71.7351 214.395 71.6562 214.184 71.4984C214.026 71.3405 213.921 71.209 213.869 71.1038V70.9459V70.7092ZM188.693 64.3957C188.693 64.6061 188.693 64.9744 188.693 65.5005C188.693 66.0267 188.536 66.4213 188.22 66.6843L183.879 71.1038L183.169 71.4194V70.6303C183.169 70.3146 183.169 70.0252 183.169 69.7622C183.169 69.5517 183.274 69.3149 183.485 69.0519L188.22 64.3957H188.693ZM216.946 62.9751H217.104H217.341L218.051 63.6854V63.8433V64.0011L212.606 69.4465L211.58 68.4205L216.946 62.9751ZM205.109 47.2703C205.109 50.4271 205.293 53.5575 205.661 56.6617C206.029 59.7132 206.213 62.8173 206.213 65.9741C206.213 66.2897 206.187 66.5791 206.135 66.8422C206.135 67.0526 205.924 67.2368 205.503 67.3946C205.135 67.3946 204.451 67.3946 203.451 67.3946C202.504 67.4472 201.478 67.4998 200.373 67.5524C199.321 67.605 198.295 67.6313 197.296 67.6313C196.349 67.684 195.691 67.7103 195.323 67.7103H193.508C192.824 67.7103 192.245 67.684 191.771 67.6313C191.35 67.6313 191.008 67.5524 190.745 67.3946C190.482 67.2368 190.272 66.9737 190.114 66.6054C190.009 66.2371 189.956 65.6847 189.956 64.9481C189.956 64.2642 189.93 63.0278 189.877 61.2389C189.877 59.3975 189.851 57.2141 189.798 54.6887C189.746 52.1633 189.693 49.4011 189.641 46.4022C189.588 43.3507 189.509 40.2729 189.404 37.1687C189.351 34.012 189.299 30.9342 189.246 27.9352C189.193 24.8837 189.141 22.0953 189.088 19.5699C189.035 17.0445 188.983 14.8874 188.93 13.0985C188.93 11.2571 188.93 9.9944 188.93 9.31044V5.60126V1.81316C189.035 1.33965 189.272 1.02398 189.641 0.866139C190.009 0.813527 190.693 0.787221 191.692 0.787221C192.692 0.734608 193.744 0.708302 194.849 0.708302C195.954 0.65569 197.006 0.629383 198.006 0.629383C199.006 0.576771 199.689 0.550465 200.058 0.550465H201.242C201.926 0.550465 202.583 0.576771 203.215 0.629383C203.898 0.681996 204.425 1.07659 204.793 1.81316C204.74 4.65424 204.767 7.469 204.872 10.2575C205.03 12.9933 205.109 15.7818 205.109 18.6228C205.109 19.412 205.056 20.2012 204.951 20.9904C204.846 21.7796 204.793 22.5688 204.793 23.358C204.793 24.7785 204.793 26.2253 204.793 27.6985C204.846 29.1716 205.082 30.5922 205.503 31.9601L222.392 14.0456L236.913 17.4391V17.8337C236.913 18.4124 236.702 19.0174 236.281 19.6488C235.861 20.2801 235.492 20.78 235.177 21.1482L216.946 39.2995C216.894 39.3522 216.973 39.5363 217.183 39.852C217.446 40.1676 217.736 40.5359 218.051 40.9568C218.367 41.3777 218.709 41.8249 219.077 42.2985C219.445 42.7194 219.761 43.0613 220.024 43.3244C220.182 43.4822 220.55 43.8768 221.129 44.5082C221.708 45.0869 222.339 45.7446 223.023 46.4811C223.707 47.1651 224.338 47.8228 224.917 48.4541C225.549 49.0328 225.943 49.4011 226.101 49.559C226.259 49.7168 226.653 50.1903 227.285 50.9795C227.916 51.7161 228.574 52.5316 229.258 53.426C229.994 54.2678 230.678 55.0833 231.31 55.8725C231.941 56.609 232.336 57.0562 232.493 57.2141C232.704 57.4245 233.046 57.8191 233.519 58.3979C234.045 58.924 234.598 59.5027 235.177 60.1341C235.755 60.7654 236.281 61.3442 236.755 61.8703C237.281 62.3964 237.676 62.7647 237.939 62.9751C238.149 63.3434 238.307 63.6591 238.412 63.9222C238.57 64.1326 238.649 64.3957 238.649 64.7114C238.649 64.9744 238.517 65.1849 238.254 65.3427C238.044 65.5005 237.807 65.6058 237.544 65.6584C236.071 66.0267 234.545 66.2634 232.967 66.3687C231.441 66.4739 229.915 66.6843 228.39 67C228.284 67 228.021 67.0526 227.6 67.1578C227.232 67.2631 226.811 67.3683 226.338 67.4735C225.917 67.6313 225.496 67.7629 225.075 67.8681C224.707 67.9733 224.47 68.0259 224.365 68.0259H224.207C223.786 68.0259 223.418 67.8155 223.102 67.3946C222.681 66.9211 222.129 66.316 221.445 65.5795C220.761 64.7903 220.077 64.0274 219.393 63.2908C218.762 62.5016 218.209 61.844 217.736 61.3179C217.262 60.7391 216.999 60.4234 216.946 60.3708C216.789 60.213 216.473 59.8184 215.999 59.187C215.578 58.5557 215.105 57.8717 214.579 57.1352C214.053 56.3986 213.553 55.7146 213.079 55.0833C212.658 54.4519 212.395 54.0573 212.29 53.8995C212.132 53.6364 211.79 53.2155 211.264 52.6368C210.738 52.0581 210.396 51.6898 210.238 51.5319L205.109 46.4022V47.2703ZM214.894 60.6076H215.131H215.289L215.447 60.7654C215.552 60.8706 215.605 60.9233 215.605 60.9233C215.657 61.0285 215.736 61.1863 215.842 61.3968C215.947 61.5546 215.973 61.6335 215.92 61.6335L210.554 67L210.475 67.0789H210.317L210.238 67C210.08 66.8948 209.896 66.7106 209.686 66.4476C209.528 66.1845 209.475 66.0267 209.528 65.9741L214.894 60.6076ZM188.22 59.8973C188.43 60.0025 188.536 60.1604 188.536 60.3708C188.588 60.5287 188.615 60.6865 188.615 60.8443C188.615 61.0548 188.588 61.2652 188.536 61.4757C188.536 61.6335 188.43 61.7914 188.22 61.9492L183.485 66.6843H183.169V64.9481L188.22 59.8973ZM207.792 62.9751L212.843 57.9244H213.079H213.237C213.342 57.977 213.474 58.0822 213.632 58.24C213.79 58.3979 213.869 58.5294 213.869 58.6346L213.947 58.7135C213.947 58.7662 213.921 58.7925 213.869 58.7925C213.869 58.7925 213.869 58.8188 213.869 58.8714V58.9503C213.816 59.0555 213.711 59.2397 213.553 59.5027C213.448 59.7132 213.342 59.8447 213.237 59.8973C213.079 60.0552 212.816 60.3445 212.448 60.7654C212.08 61.1863 211.685 61.6072 211.264 62.0281C210.843 62.449 210.422 62.8436 210.002 63.2119C209.633 63.5802 209.37 63.8433 209.212 64.0011C209.16 64.1063 209.055 64.2115 208.897 64.3168C208.739 64.3694 208.607 64.3957 208.502 64.3957C208.029 64.1852 207.792 63.8169 207.792 63.2908V62.9751ZM188.22 55.1622V57.2141L183.169 62.3438V60.3708L188.22 55.1622ZM207.082 59.187L211.264 55.1622C211.738 55.4779 211.975 55.8462 211.975 56.2671L211.896 56.5827L207.555 60.9233C207.292 60.8706 207.134 60.7128 207.082 60.4497C207.082 60.1867 207.082 59.9762 207.082 59.8184V59.187ZM188.22 50.8217V52.8736L183.169 57.9244V55.8725L188.22 50.8217ZM206.687 55.4779C206.687 55.32 206.713 55.1885 206.766 55.0833C206.766 54.9781 206.792 54.8991 206.845 54.8465L209.212 52.5579C209.318 52.6105 209.449 52.7683 209.607 53.0314C209.765 53.2945 209.844 53.4786 209.844 53.5838L209.923 53.6627C209.923 53.7154 209.896 53.7417 209.844 53.7417C209.844 53.7417 209.844 53.768 209.844 53.8206V53.8995L207.082 56.5827C206.871 56.5301 206.74 56.3723 206.687 56.1092C206.687 55.7935 206.687 55.5831 206.687 55.4779ZM182.854 51.8476C182.854 51.795 182.88 51.6898 182.932 51.5319C183.038 51.3215 183.117 51.19 183.169 51.1373L188.22 46.0865C188.273 46.1392 188.299 46.297 188.299 46.5601C188.299 46.8231 188.299 47.0073 188.299 47.1125C188.299 47.2703 188.299 47.4808 188.299 47.7438C188.299 48.0069 188.273 48.1384 188.22 48.1384C188.22 48.191 188.088 48.3752 187.825 48.6909C187.562 49.0065 187.352 49.2959 187.194 49.559L183.879 52.8736C183.827 52.9262 183.695 53.0051 183.485 53.1103C183.327 53.1629 183.222 53.1892 183.169 53.1892C183.117 53.084 183.038 52.8736 182.932 52.5579C182.88 52.1896 182.854 51.9528 182.854 51.8476ZM206.845 50.506C206.845 50.506 206.897 50.4797 207.003 50.4271L207.082 50.506C207.187 50.506 207.318 50.6112 207.476 50.8217C207.687 50.9795 207.792 51.0847 207.792 51.1373L207.95 51.3741L207.792 51.5319C207.739 51.5845 207.581 51.7424 207.318 52.0054C207.108 52.2685 206.95 52.4527 206.845 52.5579V50.506ZM187.904 42.0617C188.167 42.5878 188.299 43.0613 188.299 43.4822C188.299 43.5348 188.273 43.5611 188.22 43.5611C188.22 43.5611 188.22 43.5875 188.22 43.6401V43.7979L182.854 49.0855V47.1125L187.904 42.0617ZM187.904 37.3266V39.2995L182.854 44.3503V42.3774L187.904 37.3266ZM187.904 32.986V34.959L182.854 40.0098V38.0368L187.904 32.986ZM187.904 28.172V29.1979C187.904 29.7241 187.878 30.0924 187.825 30.3028C187.825 30.5133 187.615 30.8289 187.194 31.2498C187.089 31.3551 186.878 31.5918 186.563 31.9601C186.247 32.2758 185.905 32.6178 185.537 32.986C185.168 33.3017 184.826 33.6174 184.511 33.9331C184.195 34.2487 183.985 34.4592 183.879 34.5644C183.774 34.6696 183.59 34.8012 183.327 34.959C183.064 35.1169 182.906 35.2221 182.854 35.2747V33.2228L187.904 28.172ZM187.904 23.7526V25.8044L182.854 30.9342V28.8034L187.904 23.7526ZM187.589 19.412C187.799 19.4646 187.904 19.6488 187.904 19.9645C187.904 20.2275 187.904 20.4117 187.904 20.5169V21.1482L182.459 26.5147V24.4628L187.589 19.412ZM187.589 14.9926V16.9656L182.459 22.1742V20.1223L187.589 14.9926ZM182.143 16.0185C182.143 15.9133 182.17 15.8081 182.222 15.7029C182.327 15.545 182.406 15.4398 182.459 15.3872L187.589 10.3364V11.3623C187.589 11.6254 187.589 11.9148 187.589 12.2304C187.589 12.4935 187.457 12.7302 187.194 12.9407L182.854 17.4391H182.459C182.406 17.4391 182.327 17.2549 182.222 16.8866C182.17 16.5183 182.143 16.229 182.143 16.0185ZM187.194 6.15369C187.457 6.57459 187.589 6.91657 187.589 7.17963C187.589 7.60053 187.457 7.94252 187.194 8.20558L182.143 13.3353V11.3623L187.194 6.15369ZM187.194 2.04992V3.54937L182.143 8.60017L182.459 6.78504L187.194 2.04992ZM244.252 73.9448C244.252 73.8922 244.279 73.8396 244.331 73.787L249.382 68.5784L250.408 69.6043L244.963 75.0497H244.884C244.621 75.0497 244.436 74.9445 244.331 74.734C244.279 74.5762 244.252 74.3921 244.252 74.1816V73.9448ZM253.17 69.6043C253.275 69.6043 253.486 69.6569 253.801 69.7622C254.117 69.8674 254.328 69.9463 254.433 69.9989L249.382 75.0497H247.409L252.46 69.9989C252.512 69.9463 252.618 69.8674 252.775 69.7622C252.933 69.6569 253.065 69.6043 253.17 69.6043ZM259.247 69.9989L254.433 74.813C254.222 75.0234 253.986 75.1023 253.722 75.0497C253.459 75.0497 253.196 75.0497 252.933 75.0497H252.144L257.195 69.9989C257.3 69.8937 257.59 69.7885 258.063 69.6832C258.589 69.6306 258.984 69.6043 259.247 69.6043V69.9989ZM263.982 69.6043C263.877 69.7095 263.798 69.8411 263.745 69.9989C263.693 70.1567 263.64 70.262 263.587 70.3146C263.482 70.4724 263.272 70.7092 262.956 71.0249C262.64 71.3405 262.298 71.6562 261.93 71.9719C261.562 72.3402 261.22 72.6821 260.904 72.9978C260.588 73.3661 260.352 73.6292 260.194 73.787C260.036 73.8922 259.799 74.0501 259.484 74.2605C259.168 74.5236 258.984 74.7077 258.931 74.813H257.826H256.8L261.93 69.6043H263.982ZM271.321 69.2886H273.373L268.007 74.813H266.271V74.3394L271.321 69.2886ZM269.033 69.2886L263.982 74.3394H261.93L266.981 69.2886H269.033ZM278.108 69.2886L273.058 74.3394H271.006L275.741 69.6043C275.899 69.4465 276.162 69.3413 276.53 69.2886C276.898 69.2886 277.188 69.2886 277.398 69.2886H278.108ZM283.159 68.5784C283.159 68.6836 283.107 68.8151 283.001 68.973C282.949 69.1308 282.896 69.236 282.843 69.2886C282.738 69.4465 282.528 69.6832 282.212 69.9989C281.896 70.3146 281.554 70.6303 281.186 70.9459C280.871 71.3142 280.529 71.6562 280.16 71.9719C279.845 72.3402 279.634 72.6032 279.529 72.7611C279.003 73.182 278.503 73.4976 278.029 73.7081C277.609 73.9712 277.056 74.1027 276.372 74.1027H275.741L280.792 69.0519C281.055 68.9993 281.318 68.9467 281.581 68.894C281.791 68.8414 282.002 68.7888 282.212 68.7362C282.475 68.6836 282.686 68.631 282.843 68.5784H283.08H283.159ZM286.158 68.3416C286.737 68.2364 287.289 68.1049 287.815 67.947C288.341 67.8418 288.841 67.6313 289.315 67.3157C289.21 67.4209 289.025 67.605 288.762 67.8681C288.499 68.1312 288.21 68.3942 287.894 68.6573C287.631 68.9204 287.368 69.1834 287.105 69.4465C286.842 69.7095 286.658 69.8937 286.553 69.9989C286.5 70.1041 286.342 70.2094 286.079 70.3146C285.869 70.4724 285.711 70.604 285.606 70.7092C285.448 70.8144 285.158 70.9722 284.738 71.1827C284.369 71.3931 283.975 71.6299 283.554 71.893C283.133 72.156 282.712 72.3928 282.291 72.6032C281.923 72.8663 281.66 73.0241 281.502 73.0767L286.158 68.3416ZM249.145 64.2378V66.6054L243.937 71.7351V69.2886L249.145 64.2378ZM250.092 53.6627C250.092 51.19 250.355 48.7435 250.881 46.3233C251.46 43.9031 251.75 41.4567 251.75 38.9839V38.1947C251.75 37.5107 251.723 36.4848 251.671 35.1169C251.671 33.6963 251.644 32.1179 251.592 30.3817C251.539 28.5929 251.486 26.7252 251.434 24.7785C251.381 22.7792 251.329 20.9115 251.276 19.1753C251.223 17.3865 251.171 15.7818 251.118 14.3612C251.118 12.9407 251.118 11.8884 251.118 11.2045L251.434 4.81207C251.434 4.65424 251.486 4.41748 251.592 4.10181C251.697 3.78613 251.881 3.57568 252.144 3.47046H257.511C257.616 3.47046 257.853 3.47046 258.221 3.47046C258.642 3.41784 259.063 3.36523 259.484 3.31262C259.957 3.26001 260.378 3.2337 260.746 3.2337C261.167 3.18109 261.43 3.15478 261.535 3.15478C261.588 3.15478 261.93 3.15478 262.561 3.15478C263.193 3.15478 263.929 3.15478 264.771 3.15478C265.613 3.10217 266.455 3.07586 267.297 3.07586C268.138 3.07586 268.822 3.07586 269.348 3.07586C269.664 3.07586 270.19 3.07586 270.927 3.07586C271.663 3.07586 272.426 3.10217 273.215 3.15478C274.057 3.15478 274.846 3.15478 275.583 3.15478C276.32 3.15478 276.819 3.15478 277.082 3.15478C278.608 3.31262 280.134 3.54937 281.66 3.86505C283.238 4.12811 284.738 4.57532 286.158 5.20667C286.474 5.20667 286.711 5.28559 286.868 5.44342C288.868 6.70612 290.709 8.02143 292.393 9.38936C294.076 10.7047 295.734 12.2304 297.365 13.9666C298.575 15.2293 299.495 16.6499 300.127 18.2283C300.758 19.8066 301.284 21.4113 301.705 23.0423C301.81 23.358 301.942 23.8315 302.1 24.4628C302.31 25.0416 302.494 25.6729 302.652 26.3569C302.863 26.9882 303.047 27.567 303.205 28.0931C303.362 28.6192 303.441 28.9612 303.441 29.119C303.599 29.803 303.678 30.4606 303.678 31.092C303.678 31.6707 303.836 32.2495 304.152 32.8282V37.879C304.152 37.9842 304.204 38.1684 304.309 38.4314C304.415 38.6419 304.467 38.7997 304.467 38.9049V39.1417V39.2206C304.467 39.2732 304.415 39.4048 304.309 39.6152L304.152 39.9309C304.099 40.0887 304.02 40.3518 303.915 40.7201C303.81 41.0358 303.757 41.2462 303.757 41.3514C303.757 41.404 303.757 41.5619 303.757 41.8249C303.757 42.088 303.757 42.3774 303.757 42.693C303.757 42.9561 303.757 43.2192 303.757 43.4822C303.757 43.7453 303.757 43.9031 303.757 43.9557C303.757 44.0084 303.704 44.1399 303.599 44.3503C303.494 44.5082 303.441 44.6134 303.441 44.666C303.441 44.7712 303.389 45.0606 303.283 45.5341C303.178 46.0076 303.126 46.297 303.126 46.4022C303.02 46.7179 302.81 47.2703 302.494 48.0595C302.231 48.8487 301.942 49.6905 301.626 50.5849C301.31 51.4793 300.995 52.3211 300.679 53.1103C300.416 53.8995 300.232 54.4519 300.127 54.7676C299.39 55.662 298.706 56.6353 298.075 57.6876C297.496 58.6872 296.786 59.6343 295.944 60.5287C294.839 61.844 293.603 62.9225 292.235 63.7643C290.867 64.5535 289.42 65.3953 287.894 66.2897C287.789 66.3423 287.658 66.4213 287.5 66.5265C287.342 66.5791 287.237 66.6054 287.184 66.6054C287.131 66.658 286.974 66.6843 286.711 66.6843C286.447 66.6317 286.263 66.6054 286.158 66.6054C284.474 66.8685 282.87 67.1315 281.344 67.3946C279.871 67.7103 278.214 67.9207 276.372 68.0259C276.109 68.0259 275.478 68.0259 274.478 68.0259C273.531 68.0259 272.479 68.0259 271.321 68.0259C270.164 68.0259 269.085 68.0259 268.086 68.0259C267.139 68.0259 266.534 68.0259 266.271 68.0259C266.113 68.0259 265.692 68.0259 265.008 68.0259C264.324 68.0786 263.614 68.1312 262.877 68.1838C262.14 68.2364 261.43 68.2627 260.746 68.2627C260.062 68.3153 259.641 68.3416 259.484 68.3416H252.46C252.355 68.3942 252.17 68.4731 251.907 68.5784C251.697 68.6836 251.539 68.6836 251.434 68.5784C251.381 68.5784 251.302 68.4995 251.197 68.3416C251.144 68.2364 251.118 68.1312 251.118 68.0259C251.066 67.9207 250.987 67.605 250.881 67.0789C250.829 66.5528 250.776 66.1845 250.724 65.9741C250.461 63.9748 250.276 61.9229 250.171 59.8184C250.119 57.7139 250.092 55.662 250.092 53.6627ZM248.672 60.213V62.2649L243.621 67.3157V65.2638L248.672 60.213ZM248.672 55.4779V57.5298L243.621 62.5806V60.5287L248.672 55.4779ZM248.672 53.1892L243.621 58.24V57.293C243.621 57.0299 243.621 56.7932 243.621 56.5827C243.621 56.3197 243.726 56.0566 243.937 55.7935L248.672 51.1373V53.1892ZM267.297 52.479C267.349 52.8472 267.402 53.2945 267.454 53.8206C267.56 54.2941 267.849 54.6098 268.322 54.7676C268.428 54.7676 268.664 54.7939 269.033 54.8465C269.401 54.8465 269.638 54.8465 269.743 54.8465C269.848 54.8465 270.059 54.8465 270.374 54.8465C270.743 54.7939 270.953 54.7676 271.006 54.7676C271.321 54.7676 271.847 54.7413 272.584 54.6887C273.321 54.6361 274.084 54.5835 274.873 54.5308C275.715 54.4256 276.504 54.3467 277.24 54.2941C277.977 54.2415 278.503 54.1889 278.819 54.1363C287.658 51.7687 292.077 45.9813 292.077 36.7741C292.077 35.0905 291.761 33.2754 291.13 31.3288C290.551 29.3295 289.815 27.5933 288.92 26.1201C288.762 25.9623 288.499 25.6992 288.131 25.3309C287.815 24.9626 287.447 24.5944 287.026 24.2261C286.658 23.8052 286.29 23.4369 285.921 23.1212C285.553 22.7529 285.29 22.4899 285.132 22.332C285.08 22.332 284.711 22.1479 284.027 21.7796C283.396 21.4113 282.896 21.1745 282.528 21.0693C282.002 20.8063 281.37 20.5695 280.634 20.3591C279.95 20.096 279.345 19.8855 278.819 19.7277C278.398 19.7277 277.661 19.7014 276.609 19.6488C275.609 19.5436 274.531 19.4646 273.373 19.412C272.216 19.3068 271.111 19.2279 270.059 19.1753C269.059 19.0701 268.375 19.0174 268.007 19.0174H266.981H265.955C265.955 19.2805 265.929 19.7803 265.876 20.5169C265.823 21.2535 265.771 22.0427 265.718 22.8845C265.718 23.7263 265.692 24.5154 265.639 25.252C265.587 25.9886 265.56 26.5147 265.56 26.8304V27.3039V27.7774L267.297 49.4011V52.479ZM249.382 46.4811C249.382 46.7442 249.356 47.0862 249.303 47.5071C249.303 47.8754 249.25 48.1647 249.145 48.3752L244.647 52.7946H244.331C244.331 52.6368 244.357 52.2948 244.41 51.7687C244.515 51.2426 244.594 50.9006 244.647 50.7428L244.805 50.4271L244.963 50.1114L249.382 45.692V46.4811ZM290.025 41.9828C290.025 42.6141 289.867 43.2455 289.552 43.8768C289.236 44.4556 288.841 45.0343 288.368 45.613C287.947 46.1392 287.473 46.639 286.947 47.1125C286.474 47.586 286.027 48.0069 285.606 48.3752C285.5 48.3752 285.369 48.4278 285.211 48.533C285.053 48.6383 284.948 48.6909 284.895 48.6909V48.533V48.3752C284.895 48.1121 284.948 47.7175 285.053 47.1914C285.106 46.981 285.132 46.7179 285.132 46.4022L289.946 41.6671L290.025 41.9828ZM250.092 42.693L244.963 47.7438V47.1914C244.963 46.9283 244.989 46.6127 245.041 46.2444C245.094 45.8235 245.199 45.5341 245.357 45.3763L250.408 40.3255L250.092 42.693ZM290.656 36.6163V38.5893L285.606 43.6401L285.132 41.9828L290.656 36.6163ZM250.092 35.906V37.879L244.963 42.9298V40.9568L250.092 35.906ZM284.501 38.0368C284.501 37.9842 284.527 37.9316 284.58 37.879L289.946 32.5915L290.341 34.1698L284.895 39.6152C284.632 39.2995 284.501 38.8523 284.501 38.2736V38.0368ZM250.092 31.5655V33.5385L244.963 38.5893V36.6163L250.092 31.5655ZM288.605 29.4347H288.683H288.92C288.92 29.4873 288.973 29.6452 289.078 29.9082C289.183 30.1713 289.262 30.3817 289.315 30.5396V30.6974V30.8552L283.869 36.2217L283.159 34.8801L288.605 29.4347ZM250.25 27.0671C250.25 27.3302 250.224 27.7248 250.171 28.2509C250.171 28.777 250.013 29.1716 249.698 29.4347L245.357 33.8542L244.647 34.1698V33.3806C244.647 33.1176 244.647 32.8545 244.647 32.5915C244.647 32.3284 244.752 32.0916 244.963 31.8812L249.698 27.0671H250.25ZM286.868 26.3569H287.105C287.316 26.3569 287.5 26.5147 287.658 26.8304C287.815 27.1461 287.894 27.4091 287.894 27.6196V27.7774L282.843 32.8282H282.607H282.528C282.423 32.7756 282.238 32.6441 281.975 32.4336C281.765 32.1706 281.607 31.9864 281.502 31.8812L286.868 26.3569ZM279.529 29.4347L284.895 24.0682H285.053H285.132C285.5 24.1735 285.737 24.4102 285.842 24.7785V24.8574V25.0942L280.555 30.5396H280.318H280.081C280.029 30.487 279.924 30.3817 279.766 30.2239C279.608 30.0134 279.529 29.8819 279.529 29.8293C279.476 29.8293 279.45 29.803 279.45 29.7504V29.5925L279.529 29.4347ZM249.698 22.7266V24.7785L244.647 29.8293V27.7774L249.698 22.7266ZM281.818 22.332C281.923 22.3846 282.054 22.4372 282.212 22.4899C282.528 22.5951 282.738 22.674 282.843 22.7266C283.054 22.7266 283.159 22.8318 283.159 23.0423L277.793 28.4088L277.714 28.4877H277.556C277.345 28.4877 277.135 28.4088 276.925 28.2509C276.714 28.0931 276.53 27.9352 276.372 27.7774L281.818 22.332ZM273.373 26.3569L278.424 21.3061H278.898C279.161 21.3061 279.371 21.3324 279.529 21.385C279.687 21.385 279.871 21.5165 280.081 21.7796L274.794 27.0671H274.557H274.399C274.294 27.0145 274.11 26.9619 273.847 26.9093C273.584 26.8567 273.426 26.8304 273.373 26.8304V26.5936V26.3569ZM274.952 20.5958C275.004 20.5958 275.188 20.6221 275.504 20.6747C275.872 20.6747 276.056 20.8063 276.056 21.0693C276.056 21.1219 276.03 21.2272 275.978 21.385C275.925 21.5428 275.846 21.6744 275.741 21.7796L271.321 26.1201H269.033L274.399 20.7536C274.452 20.7536 274.531 20.7273 274.636 20.6747C274.689 20.6747 274.741 20.6747 274.794 20.6747C274.846 20.6221 274.899 20.5958 274.952 20.5958ZM272.032 20.7536L266.981 25.8044V25.5677V25.4099C267.033 25.0942 267.086 24.6996 267.139 24.2261C267.244 23.6999 267.297 23.4106 267.297 23.358L269.98 20.7536H272.032ZM249.698 17.9915V20.0434L244.647 25.0942V23.0423L249.698 17.9915ZM249.698 13.572V15.545L244.647 20.7536V18.6228L249.698 13.572ZM249.698 8.83693C249.698 8.94215 249.698 9.1263 249.698 9.38936C249.75 9.65242 249.777 9.83656 249.777 9.94179C249.777 10.4679 249.75 10.8362 249.698 11.0467C249.645 11.2045 249.461 11.4939 249.145 11.9148C248.987 12.0726 248.672 12.362 248.198 12.7829C247.777 13.2038 247.33 13.651 246.857 14.1245C246.383 14.598 245.936 15.0452 245.515 15.4661C245.094 15.8344 244.805 16.0974 244.647 16.2553V13.9666L249.698 8.83693ZM249.698 5.44342H250.092L249.698 6.46937L244.963 11.2045V10.2575L249.698 5.44342ZM333.43 68.5784H335.482L330.116 74.1027H329.721C329.458 74.1027 329.221 74.0764 329.011 74.0238C328.8 74.0238 328.59 73.9448 328.38 73.787L333.43 68.5784ZM339.902 69.0519L334.851 74.1027H332.799L337.85 69.0519H339.902ZM344.242 69.0519V69.2886L339.902 73.787C339.639 73.9975 339.349 74.1027 339.034 74.1027C338.771 74.1027 338.481 74.1027 338.165 74.1027H337.14L342.19 69.0519H344.242ZM325.381 72.3665L330.826 67C330.826 66.9474 330.905 66.9737 331.063 67.0789C331.221 67.1841 331.326 67.2631 331.378 67.3157C331.484 67.3157 331.563 67.3683 331.615 67.4735C331.668 67.5787 331.72 67.6313 331.773 67.6313V67.7892V68.0259L326.722 73.0767H326.486C326.275 73.0767 326.038 73.0504 325.775 72.9978C325.512 72.9452 325.381 72.7874 325.381 72.5243V72.3665ZM350.398 67.6313L346.373 71.7351C346.32 71.7351 346.11 71.814 345.742 71.9719C345.373 72.1823 345.11 72.3139 344.953 72.3665C344.795 72.4717 344.453 72.6032 343.927 72.7611C343.4 72.9189 343.058 73.0241 342.901 73.0767L347.399 68.5784C347.452 68.5784 347.531 68.5521 347.636 68.4995C347.846 68.3942 347.951 68.3416 347.951 68.3416C348.162 68.2364 348.53 68.1049 349.056 67.947C349.582 67.7892 349.898 67.684 350.003 67.6313H350.161H350.398ZM322.303 70.7092L327.748 65.2638L328.064 65.4216C328.274 65.5269 328.38 65.5795 328.38 65.5795C328.59 65.7373 328.695 65.8425 328.695 65.8951C328.748 65.9478 328.774 66.0793 328.774 66.2897V66.6054C328.616 66.7632 328.327 67.0526 327.906 67.4735C327.485 67.947 327.038 68.4205 326.564 68.894C326.091 69.3676 325.644 69.7885 325.223 70.1567C324.802 70.5776 324.513 70.867 324.355 71.0249C324.249 71.1301 324.065 71.2616 323.802 71.4194C323.539 71.6299 323.381 71.7351 323.329 71.7351C323.276 71.7351 323.118 71.6299 322.855 71.4194C322.592 71.2616 322.408 71.1301 322.303 71.0249V70.867V70.7092ZM325.065 63.5276H325.144H325.381C325.486 63.6328 325.644 63.7643 325.854 63.9222C326.117 64.08 326.275 64.1852 326.328 64.2378L321.04 69.7622H320.724C320.198 69.7622 319.83 69.5254 319.62 69.0519L325.065 63.5276ZM317.252 66.6054L322.619 61.2389L323.644 62.2649L318.278 67.6313L318.199 67.7103H318.041L317.962 67.6313C317.857 67.6313 317.726 67.5261 317.568 67.3157C317.41 67.1578 317.305 67.0526 317.252 67V66.7632V66.6054ZM317.252 18.7018C317.252 17.2812 317.594 16.4657 318.278 16.2553C318.962 15.9922 319.883 15.8607 321.04 15.8607C321.251 15.8607 321.54 15.887 321.908 15.9396C322.329 15.9922 322.566 16.0185 322.619 16.0185C323.25 16.0711 324.065 16.1501 325.065 16.2553C326.117 16.3079 327.143 16.3868 328.143 16.492C329.142 16.5973 329.984 16.7025 330.668 16.8077C331.405 16.9129 331.773 16.9656 331.773 16.9656L332.089 17.2812V28.8034C332.089 29.2769 332.089 30.0134 332.089 31.0131C332.141 32.0127 332.194 33.065 332.247 34.1698C332.299 35.2221 332.326 36.2217 332.326 37.1687C332.378 38.0631 332.404 38.6419 332.404 38.9049C332.404 39.0628 332.431 39.3785 332.483 39.852C332.589 40.3255 332.667 40.8779 332.72 41.5093C332.825 42.088 332.904 42.693 332.957 43.3244C333.009 43.9031 333.062 44.3503 333.115 44.666C333.378 46.4548 333.851 47.9806 334.535 49.2433C335.272 50.4534 336.482 51.4267 338.165 52.1633C338.323 52.2159 338.665 52.3211 339.191 52.479C339.718 52.5842 340.06 52.6894 340.217 52.7946H340.375C342.901 52.7946 344.768 52.0318 345.978 50.506C347.189 48.9802 347.978 47.0336 348.346 44.666V38.1158C348.346 35.643 348.32 33.4333 348.267 31.4866C348.267 29.4873 348.162 27.2513 347.951 24.7785C347.951 24.6207 347.925 24.2787 347.872 23.7526C347.82 23.2264 347.741 22.674 347.636 22.0953C347.583 21.4639 347.531 20.8852 347.478 20.3591C347.425 19.8329 347.399 19.4909 347.399 19.3331C347.399 19.1753 347.425 18.7018 347.478 17.9126C347.531 17.1234 347.583 16.571 347.636 16.2553C347.636 16.2027 347.688 16.0974 347.794 15.9396C347.899 15.7818 347.951 15.6502 347.951 15.545C348.846 15.3346 349.582 15.2556 350.161 15.3083C350.792 15.3083 351.555 15.3083 352.45 15.3083H354.738C355.107 15.3083 355.712 15.3346 356.554 15.3872C357.448 15.3872 358.369 15.4135 359.316 15.4661C360.315 15.4661 361.236 15.4924 362.078 15.545C362.92 15.545 363.498 15.545 363.814 15.545C364.13 15.7555 364.366 16.0711 364.524 16.492C364.682 16.8603 364.761 17.2812 364.761 17.7547C364.814 18.1756 364.84 18.6228 364.84 19.0964C364.84 19.5173 364.84 19.8855 364.84 20.2012C364.84 24.305 364.656 28.3298 364.288 32.2758C363.972 36.2217 363.472 40.2466 362.788 44.3503C362.788 44.4556 362.709 44.8502 362.551 45.5341C362.446 46.1655 362.315 46.9283 362.157 47.8228C361.999 48.6646 361.815 49.5327 361.604 50.4271C361.447 51.2689 361.315 51.9528 361.21 52.479C360.736 54.373 360.079 56.1092 359.237 57.6876C358.448 59.2134 357.422 60.7391 356.159 62.2649C354.896 63.6854 353.528 64.6851 352.055 65.2638C350.635 65.8425 349.083 66.4213 347.399 67C347.136 67.0526 346.847 67.1052 346.531 67.1578C346.215 67.2631 346.031 67.3157 345.978 67.3157H336.193C335.929 67.3157 335.482 67.2368 334.851 67.0789C334.22 66.9211 333.746 66.7632 333.43 66.6054C331.221 65.5532 329.169 64.3694 327.275 63.0541C325.381 61.6861 323.618 60.0815 321.987 58.24C321.566 57.7139 321.198 57.0562 320.882 56.2671C320.619 55.4779 320.435 54.7676 320.33 54.1363C320.172 53.5049 319.962 52.6631 319.699 51.6109C319.435 50.506 319.172 49.4274 318.909 48.3752C318.699 47.2703 318.488 46.297 318.278 45.4552C318.068 44.6134 317.962 44.1136 317.962 43.9557C317.962 43.8505 317.936 43.6138 317.883 43.2455C317.831 42.8246 317.778 42.4037 317.726 41.9828C317.726 41.5093 317.699 41.0884 317.647 40.7201C317.594 40.2992 317.568 40.0361 317.568 39.9309C317.568 39.7204 317.515 39.2732 317.41 38.5893C317.357 37.9053 317.305 37.4318 317.252 37.1687V18.7018ZM315.121 64.5535C315.121 64.5535 315.148 64.5009 315.2 64.3957C315.2 64.3431 315.226 64.2905 315.279 64.2378L320.33 59.187H320.488H320.567C320.672 59.2923 320.803 59.4238 320.961 59.5816C321.119 59.6869 321.224 59.7921 321.277 59.8973V60.0552V60.213L315.989 65.5795C315.411 65.4216 315.121 65.0796 315.121 64.5535ZM313.859 60.9233L318.988 55.7935H319.067C319.33 55.7935 319.488 55.9251 319.541 56.1881C319.646 56.4512 319.699 56.6617 319.699 56.8195C319.699 57.2404 319.567 57.5824 319.304 57.8454L314.806 62.2649L314.253 62.5806C314.043 62.3701 313.911 62.186 313.859 62.0281C313.859 61.8177 313.859 61.5809 313.859 61.3179V60.9233ZM312.833 57.5298L318.278 52.1633C318.331 52.2685 318.383 52.479 318.436 52.7946C318.541 53.1103 318.594 53.3208 318.594 53.426V53.6627V53.7417L313.227 59.187C312.964 58.8188 312.833 58.3716 312.833 57.8454V57.5298ZM317.252 48.3752C317.515 48.4804 317.647 48.6909 317.647 49.0065C317.647 49.2696 317.647 49.4537 317.647 49.559C317.647 49.6116 317.62 49.6642 317.568 49.7168C317.568 49.7694 317.568 49.822 317.568 49.8746V50.1114L312.517 55.1622H312.201V53.426L317.252 48.3752ZM311.175 50.1114L316.542 44.666C316.594 44.7712 316.647 45.008 316.7 45.3763C316.805 45.692 316.884 45.9024 316.936 46.0076V46.1655V46.4022L311.491 51.7687C311.386 51.5056 311.281 51.2689 311.175 51.0584C311.123 50.848 311.096 50.6112 311.096 50.3482L311.175 50.1114ZM346.373 46.8757V47.0336C345.952 47.8754 345.426 48.7698 344.795 49.7168C344.163 50.6638 343.295 51.1373 342.19 51.1373H341.875L346.373 46.7179V46.8757ZM346.925 41.6671V43.6401L341.875 48.6909V46.7179L346.925 41.6671ZM310.781 46.0076C310.886 45.9024 310.965 45.7709 311.017 45.613C311.07 45.4552 311.123 45.3763 311.175 45.3763L316.226 40.3255V41.3514C316.226 41.8776 316.2 42.2458 316.147 42.4563C316.147 42.6141 315.937 42.9035 315.516 43.3244C315.358 43.4822 315.069 43.7716 314.648 44.1925C314.279 44.6134 313.859 45.0606 313.385 45.5341C312.912 46.0076 312.464 46.4548 312.043 46.8757C311.623 47.2966 311.333 47.586 311.175 47.7438C311.123 47.6386 311.07 47.4282 311.017 47.1125C310.965 46.7442 310.886 46.5074 310.781 46.4022V46.1655V46.0076ZM346.925 36.932V38.9049L341.875 43.9557V41.9828L346.925 36.932ZM315.516 36.6163C315.621 36.7215 315.7 36.932 315.753 37.2477C315.805 37.5633 315.884 37.7738 315.989 37.879V38.1158V38.1947L310.465 43.6401V41.6671L315.516 36.6163ZM346.925 32.5915V34.5644L341.875 39.6152L341.638 37.879L346.925 32.5915ZM315.516 31.8812V33.8542L310.465 38.9049V36.932L315.516 31.8812ZM346.689 28.0931H347.241C347.241 28.777 347.057 29.4347 346.689 30.0661C346.373 30.6448 345.978 31.2235 345.505 31.8023C345.031 32.3284 344.532 32.8282 344.005 33.3017C343.479 33.7752 343.006 34.1961 342.585 34.5644C342.48 34.617 342.296 34.7486 342.033 34.959C341.822 35.1169 341.691 35.1958 341.638 35.1958V33.1439L346.689 28.0931ZM315.516 27.3828V29.5136L310.465 34.5644V32.5915L315.516 27.3828ZM346.373 24.0682C346.531 24.2787 346.61 24.4891 346.61 24.6996C346.662 24.8574 346.689 25.0416 346.689 25.252V25.8044L341.638 30.8552H341.243V29.119L346.373 24.0682ZM315.516 22.7266V25.0942L310.465 30.145V27.7774L315.516 22.7266ZM340.612 26.1201C340.612 25.9623 340.638 25.7255 340.691 25.4099C340.744 25.0416 340.822 24.8311 340.928 24.7785L345.663 20.0434H345.978V21.7796L340.928 26.8304C340.822 26.7252 340.744 26.5936 340.691 26.4358C340.638 26.278 340.612 26.1727 340.612 26.1201ZM315.989 18.7018L315.516 20.3591L310.781 25.0942V24.3839C310.781 24.1208 310.781 23.8841 310.781 23.6736C310.833 23.4632 310.965 23.2527 311.175 23.0423L315.516 18.7018H315.989ZM402.169 69.0519H404.142L398.696 74.4973H397.118V74.1816L402.169 69.0519ZM406.509 69.0519H408.482V69.4465L404.142 73.787C404.089 73.8396 403.984 73.8922 403.826 73.9448C403.668 74.0501 403.536 74.129 403.431 74.1816C403.326 74.1816 403.01 74.2342 402.484 74.3394C401.958 74.4447 401.616 74.4973 401.458 74.4973V74.1816L406.509 69.0519ZM398.144 68.4205L398.302 68.3416C398.617 68.3416 398.854 68.3679 399.012 68.4205C399.222 68.5258 399.459 68.631 399.722 68.7362L394.356 74.1816H394.198H393.961C393.856 74.129 393.619 74.0501 393.251 73.9448C392.935 73.8922 392.725 73.8396 392.619 73.787L398.144 68.4205ZM413.533 68.7362L409.192 73.1557C408.929 73.4187 408.587 73.6029 408.166 73.7081C407.745 73.8133 407.351 73.8659 406.983 73.8659H406.746H406.588C406.535 73.8659 406.509 73.8396 406.509 73.787L411.56 68.7362H413.533ZM394.671 67.3946H394.829C394.882 67.3946 394.908 67.3683 394.908 67.3157C394.908 67.3157 394.934 67.3157 394.987 67.3157C395.25 67.3157 395.487 67.342 395.697 67.3946C395.908 67.4998 396.144 67.605 396.407 67.7103L390.962 73.1557H390.725C390.41 73.1557 390.147 73.1294 389.936 73.0767C389.778 73.0241 389.568 72.9189 389.305 72.7611L394.671 67.3946ZM391.357 65.9741H391.436C391.646 65.9741 391.857 66.053 392.067 66.2108C392.33 66.316 392.514 66.4739 392.619 66.6843C392.567 66.7896 392.462 66.9737 392.304 67.2368C392.198 67.4998 392.093 67.6577 391.988 67.7103C391.83 67.8681 391.541 68.1575 391.12 68.5784C390.699 68.9993 390.252 69.4465 389.778 69.92C389.305 70.3935 388.858 70.8407 388.437 71.2616C388.016 71.6825 387.726 71.9719 387.569 72.1297H387.332C386.753 72.1297 386.28 71.893 385.911 71.4194L391.357 65.9741ZM418.741 67C418.636 67.1052 418.399 67.342 418.031 67.7103C417.663 68.0786 417.426 68.3153 417.321 68.4205C417.216 68.4731 417.058 68.5784 416.847 68.7362C416.637 68.9467 416.4 69.1571 416.137 69.3676C415.927 69.6306 415.69 69.8674 415.427 70.0778C415.216 70.2883 415.059 70.4198 414.953 70.4724C414.848 70.5776 414.611 70.7355 414.243 70.9459C413.875 71.209 413.638 71.3668 413.533 71.4194H413.454H413.296L417.005 67.7103L418.741 67ZM383.149 69.7622L388.595 64.3957C388.595 64.2905 388.673 64.2905 388.831 64.3957C389.042 64.5009 389.2 64.6061 389.305 64.7114L389.62 64.9481V65.1849V65.4216L384.57 70.4724H384.254C384.044 70.4724 383.807 70.4461 383.544 70.3935C383.281 70.3409 383.149 70.1831 383.149 69.92V69.7622ZM380.466 67.7892L380.545 67.7103L385.911 62.3438C385.964 62.2912 386.122 62.3701 386.385 62.5806C386.648 62.7384 386.832 62.8699 386.937 62.9751L387.016 63.133L386.937 63.3697L381.571 68.7362H381.334H381.176C381.071 68.631 380.939 68.4995 380.782 68.3416C380.624 68.2364 380.545 68.1312 380.545 68.0259L380.466 67.947V67.7892ZM377.783 43.0876C377.783 38.3525 378.519 33.9594 379.992 29.9082C381.466 25.8571 383.991 22.2531 387.569 19.0964C388.779 17.9915 390.147 17.1497 391.672 16.571C393.251 15.9922 394.855 15.5713 396.486 15.3083C398.17 14.9926 399.854 14.8084 401.537 14.7558C403.221 14.7032 404.799 14.6769 406.272 14.6769H411.244C413.454 15.0452 415.427 15.5713 417.163 16.2553C418.899 16.8866 420.767 17.7021 422.766 18.7018C422.872 18.7544 423.029 18.8859 423.24 19.0964C423.503 19.2542 423.687 19.3594 423.792 19.412C423.95 19.5699 424.239 19.8855 424.66 20.3591C425.134 20.78 425.634 21.2535 426.16 21.7796C426.686 22.2531 427.159 22.7266 427.58 23.2001C428.054 23.621 428.37 23.9367 428.527 24.1472C428.527 24.2524 428.527 24.3839 428.527 24.5417C428.58 24.647 428.606 24.7259 428.606 24.7785C428.606 24.8837 428.58 24.9626 428.527 25.0153C428.527 25.0679 428.527 25.1468 428.527 25.252V25.4888L426.791 27.225C426.686 27.2776 426.397 27.488 425.923 27.8563C425.45 28.2246 425.16 28.4351 425.055 28.4877C424.897 28.6455 424.634 28.9086 424.266 29.2769C423.898 29.6452 423.503 30.0397 423.082 30.4606C422.661 30.8289 422.24 31.1972 421.819 31.5655C421.451 31.8812 421.188 32.1179 421.03 32.2758C420.82 32.4862 420.583 32.6178 420.32 32.6704C420.057 32.6704 419.794 32.6704 419.531 32.6704C418.636 32.6704 417.9 32.4599 417.321 32.039C416.795 31.5655 416.111 31.1972 415.269 30.9342C413.901 30.408 412.507 29.9871 411.086 29.6715C409.666 29.3558 408.245 29.1979 406.825 29.1979C405.983 29.1979 405.141 29.2506 404.299 29.3558C403.458 29.4084 402.747 29.6978 402.169 30.2239C401.327 30.8552 400.538 31.697 399.801 32.7493C399.064 33.7489 398.407 34.8275 397.828 35.985C397.302 37.1424 396.855 38.3262 396.486 39.5363C396.171 40.7464 396.013 41.8512 396.013 42.8509C396.013 44.7449 396.329 46.3496 396.96 47.6649C397.591 48.9802 398.459 50.0588 399.564 50.9006C400.669 51.6898 401.932 52.2948 403.352 52.7157C404.825 53.084 406.404 53.2681 408.087 53.2681C409.613 53.2681 410.981 53.084 412.191 52.7157C413.454 52.2948 414.717 51.6635 415.979 50.8217C416.032 50.7691 416.216 50.6375 416.532 50.4271C416.9 50.164 417.268 49.901 417.637 49.6379C418.058 49.3748 418.426 49.1118 418.741 48.8487C419.057 48.5856 419.241 48.4278 419.294 48.3752C419.399 48.3752 419.689 48.3489 420.162 48.2963C420.688 48.2437 421.083 48.191 421.346 48.1384H421.583H421.74L429.553 53.1892V53.8995C429.553 54.6361 429.422 55.1885 429.159 55.5568C428.896 55.8725 428.554 56.3197 428.133 56.8984C427.975 57.0562 427.765 57.3193 427.501 57.6876C427.238 58.0033 426.949 58.3189 426.633 58.6346C426.37 58.9503 426.107 59.2397 425.844 59.5027C425.581 59.7132 425.423 59.8447 425.371 59.8973C423.792 61.4757 422.319 62.791 420.951 63.8433C419.583 64.8429 418.163 65.6321 416.69 66.2108C415.216 66.7896 413.612 67.1841 411.876 67.3946C410.139 67.605 408.166 67.7103 405.957 67.7103C403.747 67.7103 401.537 67.4735 399.327 67C397.118 66.5791 394.987 65.9214 392.935 65.027C390.883 64.08 388.963 62.9225 387.174 61.5546C385.385 60.1341 383.833 58.4768 382.518 56.5827L379.835 52.5579C378.94 51.0321 378.361 49.5064 378.098 47.9806C377.888 46.4022 377.783 44.7712 377.783 43.0876ZM378.098 65.6584L383.544 60.3708L383.702 60.213L383.781 60.2919C383.781 60.3445 383.807 60.3708 383.859 60.3708C383.912 60.3708 384.017 60.4497 384.175 60.6076C384.386 60.7654 384.517 60.8706 384.57 60.9233V61.16V61.3179L379.124 66.6843H379.045H378.809C378.756 66.6317 378.624 66.5265 378.414 66.3687C378.256 66.2108 378.151 66.0793 378.098 65.9741V65.8951V65.6584ZM381.176 57.9244H381.334H381.571C381.623 57.977 381.729 58.0822 381.886 58.24C382.044 58.3979 382.123 58.5294 382.123 58.6346L382.281 58.7135C382.281 58.7662 382.255 58.7925 382.202 58.7925C382.202 58.7925 382.202 58.8188 382.202 58.8714L382.123 58.9503C382.071 59.0555 381.965 59.2397 381.808 59.5027C381.702 59.7132 381.623 59.8447 381.571 59.8973C381.413 60.0552 381.124 60.3445 380.703 60.7654C380.334 61.1863 379.94 61.6072 379.519 62.0281C379.098 62.449 378.677 62.8436 378.256 63.2119C377.888 63.5802 377.625 63.8433 377.467 64.0011C377.309 64.2642 377.099 64.3957 376.836 64.3957C376.73 64.2905 376.546 64.1326 376.283 63.9222C376.02 63.6591 375.862 63.475 375.81 63.3697L381.176 57.9244ZM379.519 55.1622H379.598H379.835C379.94 55.2674 380.098 55.4779 380.308 55.7935C380.413 55.9514 380.492 56.0829 380.545 56.1881L375.099 61.6335H374.863H374.784C374.731 61.6335 374.652 61.5809 374.547 61.4757C374.494 61.3705 374.442 61.3179 374.389 61.3179C374.337 61.2652 374.31 61.2126 374.31 61.16C374.31 61.1074 374.284 61.0285 374.231 60.9233L374.074 60.6076L379.519 55.1622ZM372.337 57.6087L377.783 52.1633C377.993 52.2685 378.098 52.4 378.098 52.5579C378.204 52.6631 378.282 52.8472 378.335 53.1103C378.44 53.3208 378.493 53.4786 378.493 53.5838L373.048 58.9503C372.837 58.8451 372.653 58.6609 372.495 58.3979C372.39 58.1348 372.337 57.898 372.337 57.6876V57.6087ZM371.311 54.1363L376.52 49.0855H376.599H376.836C376.836 49.1907 376.862 49.3748 376.915 49.6379C377.02 49.8483 377.072 50.0062 377.072 50.1114V50.3482V50.506L371.785 55.8725C371.522 55.8199 371.364 55.662 371.311 55.399C371.311 55.0833 371.311 54.8728 371.311 54.7676V54.1363ZM376.125 44.7449C376.231 44.8502 376.31 45.1395 376.362 45.613C376.467 46.0339 376.52 46.297 376.52 46.4022C376.415 46.4548 376.231 46.6653 375.968 47.0336C375.704 47.4019 375.52 47.6649 375.415 47.8228C375.152 48.1384 374.784 48.533 374.31 49.0065C373.889 49.4274 373.442 49.8483 372.969 50.2692C372.548 50.6901 372.179 51.0584 371.864 51.3741C371.548 51.6898 371.364 51.8476 371.311 51.8476H371.075V49.7957L376.125 44.7449ZM376.125 42.3774L371.075 47.4282V47.1125V46.7968C371.075 46.639 371.127 46.297 371.232 45.7709C371.285 45.5604 371.311 45.3237 371.311 45.0606L376.52 40.0098L376.125 42.3774ZM377.072 34.8012V34.959C377.072 35.2221 377.02 35.6167 376.915 36.1428C376.862 36.6689 376.836 36.9583 376.836 37.0109L372.022 41.746V41.2725C372.022 40.9568 372.022 40.5885 372.022 40.1676C372.074 39.7467 372.179 39.4574 372.337 39.2995L377.072 34.5644V34.8012ZM419.767 34.2487C419.61 34.4066 419.32 34.696 418.899 35.1169C418.531 35.4851 418.136 35.8797 417.716 36.3006C417.295 36.7215 416.874 37.1161 416.453 37.4844C416.032 37.8527 415.743 38.1158 415.585 38.2736C415.48 38.3788 415.216 38.5893 414.796 38.9049C414.375 39.168 414.033 39.2995 413.77 39.2995H413.533L418.741 34.2487H419.767ZM415.269 32.986L415.348 32.8282C415.611 32.8282 415.848 32.9071 416.058 33.065C416.321 33.2228 416.532 33.3806 416.69 33.5385L411.244 38.9839H411.165C410.534 38.9839 410.113 38.7471 409.903 38.2736L415.269 32.986ZM412.27 31.5655H412.586C413.059 31.5655 413.533 31.697 414.006 31.9601L408.482 37.3266H408.324C408.009 37.3266 407.745 37.3003 407.535 37.2477C407.377 37.195 407.167 37.1161 406.904 37.0109L412.27 31.5655ZM408.245 30.9342H408.482C408.535 30.9342 408.587 30.9342 408.64 30.9342C408.693 30.8815 408.745 30.8552 408.798 30.8552C409.061 30.8552 409.298 30.8815 409.508 30.9342C409.771 30.9342 410.008 31.0394 410.218 31.2498L405.167 36.3006H403.194V35.985L408.245 30.9342ZM403.747 30.9342C404.115 30.7237 404.405 30.6185 404.615 30.6185C404.825 30.5659 405.115 30.5396 405.483 30.5396H406.193L401.143 35.5904L399.722 35.985V35.5904C399.722 35.3273 399.775 35.1169 399.88 34.959C399.985 34.7486 400.169 34.5118 400.432 34.2487C400.538 34.1435 400.748 33.9331 401.064 33.6174C401.379 33.2491 401.721 32.9071 402.09 32.5915C402.458 32.2232 402.8 31.8812 403.116 31.5655C403.431 31.2498 403.642 31.0394 403.747 30.9342ZM378.809 28.7244V28.8034C378.756 28.9612 378.651 29.3032 378.493 29.8293C378.335 30.3554 378.204 30.7237 378.098 30.9342C378.098 30.9342 378.046 31.0394 377.941 31.2498L377.783 31.5655L373.758 35.5904L373.679 35.5114V35.3536L373.758 35.2747C373.81 35.0642 374.021 34.6433 374.389 34.012C374.757 33.328 374.994 32.8545 375.099 32.5915C375.52 31.8023 376.099 31.0657 376.836 30.3817C377.572 29.6978 378.23 29.0664 378.809 28.4877V28.7244ZM447.941 69.4465L442.891 74.4973H440.839L445.89 69.4465H447.941ZM469.565 73.1557L475.011 67.7103C475.116 67.7629 475.274 67.9207 475.484 68.1838C475.747 68.4468 475.931 68.631 476.036 68.7362C476.036 68.7888 475.984 68.894 475.879 69.0519C475.826 69.2097 475.773 69.3413 475.721 69.4465L470.591 74.4973H470.433C470.17 74.4973 469.96 74.3394 469.802 74.0238C469.644 73.7081 469.565 73.445 469.565 73.2346V73.1557ZM442.575 68.4205L442.654 68.3416C442.917 68.3416 443.154 68.4205 443.364 68.5784C443.627 68.7362 443.811 68.894 443.917 69.0519L438.866 74.1816H438.234C438.129 74.1816 437.919 74.1816 437.603 74.1816C437.34 74.1816 437.182 74.0501 437.13 73.787L442.575 68.4205ZM452.361 68.7362C452.729 68.7362 452.966 68.8414 453.071 69.0519L447.941 74.1816H445.89L451.098 69.0519C451.151 68.9993 451.256 68.9467 451.414 68.894C451.624 68.7888 451.835 68.7362 452.045 68.7362H452.361ZM457.412 69.0519V69.4465L453.071 73.787C452.808 74.0501 452.519 74.1816 452.203 74.1816C451.94 74.1816 451.651 74.1816 451.335 74.1816H450.388L455.439 69.0519H457.412ZM480.377 69.0519L476.036 73.4713C475.773 73.7344 475.379 73.9185 474.853 74.0238C474.379 74.129 473.985 74.1816 473.669 74.1816H473.274L478.009 69.4465C478.009 69.3413 478.22 69.2623 478.641 69.2097C479.114 69.1571 479.483 69.1045 479.746 69.0519H480.061H480.377ZM481.087 72.7611C480.877 73.0241 480.614 73.1557 480.298 73.1557C480.035 73.1557 479.772 73.1557 479.509 73.1557H478.72L483.455 68.4205C483.455 68.3679 483.586 68.289 483.849 68.1838C484.112 68.1312 484.323 68.0786 484.481 68.0259C484.586 68.0259 484.849 67.9733 485.27 67.8681C485.743 67.7629 486.033 67.7103 486.138 67.7103L481.087 72.7611ZM489.847 67.3157C489.847 67.3157 489.9 67.342 490.005 67.3946H490.163L485.507 72.1297C485.349 72.2876 485.165 72.3665 484.954 72.3665C484.796 72.4191 484.639 72.4454 484.481 72.4454H484.086L488.821 67.7103C489.084 67.4472 489.426 67.3157 489.847 67.3157ZM467.513 70.7092L472.959 65.4216C473.432 65.5795 473.669 65.8951 473.669 66.3687V66.6843L468.539 71.7351L468.46 71.814H468.302C468.25 71.814 468.223 71.7877 468.223 71.7351C468.171 71.7351 468.039 71.6562 467.829 71.4984C467.671 71.3405 467.566 71.209 467.513 71.1038V70.9459V70.7092ZM442.338 64.3957C442.338 64.6061 442.338 64.9744 442.338 65.5005C442.338 66.0267 442.18 66.4213 441.865 66.6843L437.524 71.1038L436.814 71.4194V70.6303C436.814 70.3146 436.814 70.0252 436.814 69.7622C436.814 69.5517 436.919 69.3149 437.13 69.0519L441.865 64.3957H442.338ZM470.591 62.9751H470.749H470.986L471.696 63.6854V63.8433V64.0011L466.251 69.4465L465.225 68.4205L470.591 62.9751ZM458.753 47.2703C458.753 50.4271 458.937 53.5575 459.306 56.6617C459.674 59.7132 459.858 62.8173 459.858 65.9741C459.858 66.2897 459.832 66.5791 459.779 66.8422C459.779 67.0526 459.569 67.2368 459.148 67.3946C458.78 67.3946 458.096 67.3946 457.096 67.3946C456.149 67.4472 455.123 67.4998 454.018 67.5524C452.966 67.605 451.94 67.6313 450.94 67.6313C449.993 67.684 449.336 67.7103 448.967 67.7103H447.152C446.468 67.7103 445.89 67.684 445.416 67.6313C444.995 67.6313 444.653 67.5524 444.39 67.3946C444.127 67.2368 443.917 66.9737 443.759 66.6054C443.653 66.2371 443.601 65.6847 443.601 64.9481C443.601 64.2642 443.575 63.0278 443.522 61.2389C443.522 59.3975 443.496 57.2141 443.443 54.6887C443.39 52.1633 443.338 49.4011 443.285 46.4022C443.233 43.3507 443.154 40.2729 443.048 37.1687C442.996 34.012 442.943 30.9342 442.891 27.9352C442.838 24.8837 442.785 22.0953 442.733 19.5699C442.68 17.0445 442.628 14.8874 442.575 13.0985C442.575 11.2571 442.575 9.9944 442.575 9.31044V5.60126V1.81316C442.68 1.33965 442.917 1.02398 443.285 0.866139C443.653 0.813527 444.337 0.787221 445.337 0.787221C446.337 0.734608 447.389 0.708302 448.494 0.708302C449.599 0.65569 450.651 0.629383 451.651 0.629383C452.65 0.576771 453.334 0.550465 453.702 0.550465H454.886C455.57 0.550465 456.228 0.576771 456.859 0.629383C457.543 0.681996 458.069 1.07659 458.438 1.81316C458.385 4.65424 458.411 7.469 458.516 10.2575C458.674 12.9933 458.753 15.7818 458.753 18.6228C458.753 19.412 458.701 20.2012 458.595 20.9904C458.49 21.7796 458.438 22.5688 458.438 23.358C458.438 24.7785 458.438 26.2253 458.438 27.6985C458.49 29.1716 458.727 30.5922 459.148 31.9601L476.036 14.0456L490.557 17.4391V17.8337C490.557 18.4124 490.347 19.0174 489.926 19.6488C489.505 20.2801 489.137 20.78 488.821 21.1482L470.591 39.2995C470.538 39.3522 470.617 39.5363 470.828 39.852C471.091 40.1676 471.38 40.5359 471.696 40.9568C472.012 41.3777 472.354 41.8249 472.722 42.2985C473.09 42.7194 473.406 43.0613 473.669 43.3244C473.827 43.4822 474.195 43.8768 474.774 44.5082C475.352 45.0869 475.984 45.7446 476.668 46.4811C477.352 47.1651 477.983 47.8228 478.562 48.4541C479.193 49.0328 479.588 49.4011 479.746 49.559C479.903 49.7168 480.298 50.1903 480.929 50.9795C481.561 51.7161 482.218 52.5316 482.902 53.426C483.639 54.2678 484.323 55.0833 484.954 55.8725C485.586 56.609 485.98 57.0562 486.138 57.2141C486.348 57.4245 486.69 57.8191 487.164 58.3979C487.69 58.924 488.243 59.5027 488.821 60.1341C489.4 60.7654 489.926 61.3442 490.4 61.8703C490.926 62.3964 491.32 62.7647 491.583 62.9751C491.794 63.3434 491.952 63.6591 492.057 63.9222C492.215 64.1326 492.294 64.3957 492.294 64.7114C492.294 64.9744 492.162 65.1849 491.899 65.3427C491.689 65.5005 491.452 65.6058 491.189 65.6584C489.716 66.0267 488.19 66.2634 486.612 66.3687C485.086 66.4739 483.56 66.6843 482.034 67C481.929 67 481.666 67.0526 481.245 67.1578C480.877 67.2631 480.456 67.3683 479.982 67.4735C479.561 67.6313 479.141 67.7629 478.72 67.8681C478.351 67.9733 478.115 68.0259 478.009 68.0259H477.852C477.431 68.0259 477.062 67.8155 476.747 67.3946C476.326 66.9211 475.773 66.316 475.089 65.5795C474.405 64.7903 473.721 64.0274 473.038 63.2908C472.406 62.5016 471.854 61.844 471.38 61.3179C470.907 60.7391 470.644 60.4234 470.591 60.3708C470.433 60.213 470.118 59.8184 469.644 59.187C469.223 58.5557 468.75 57.8717 468.223 57.1352C467.697 56.3986 467.198 55.7146 466.724 55.0833C466.303 54.4519 466.04 54.0573 465.935 53.8995C465.777 53.6364 465.435 53.2155 464.909 52.6368C464.383 52.0581 464.041 51.6898 463.883 51.5319L458.753 46.4022V47.2703ZM468.539 60.6076H468.776H468.934L469.092 60.7654C469.197 60.8706 469.249 60.9233 469.249 60.9233C469.302 61.0285 469.381 61.1863 469.486 61.3968C469.591 61.5546 469.618 61.6335 469.565 61.6335L464.199 67L464.12 67.0789H463.962L463.883 67C463.725 66.8948 463.541 66.7106 463.331 66.4476C463.173 66.1845 463.12 66.0267 463.173 65.9741L468.539 60.6076ZM441.865 59.8973C442.075 60.0025 442.18 60.1604 442.18 60.3708C442.233 60.5287 442.259 60.6865 442.259 60.8443C442.259 61.0548 442.233 61.2652 442.18 61.4757C442.18 61.6335 442.075 61.7914 441.865 61.9492L437.13 66.6843H436.814V64.9481L441.865 59.8973ZM461.436 62.9751L466.487 57.9244H466.724H466.882C466.987 57.977 467.119 58.0822 467.276 58.24C467.434 58.3979 467.513 58.5294 467.513 58.6346L467.592 58.7135C467.592 58.7662 467.566 58.7925 467.513 58.7925C467.513 58.7925 467.513 58.8188 467.513 58.8714V58.9503C467.461 59.0555 467.355 59.2397 467.198 59.5027C467.092 59.7132 466.987 59.8447 466.882 59.8973C466.724 60.0552 466.461 60.3445 466.093 60.7654C465.724 61.1863 465.33 61.6072 464.909 62.0281C464.488 62.449 464.067 62.8436 463.646 63.2119C463.278 63.5802 463.015 63.8433 462.857 64.0011C462.804 64.1063 462.699 64.2115 462.541 64.3168C462.384 64.3694 462.252 64.3957 462.147 64.3957C461.673 64.1852 461.436 63.8169 461.436 63.2908V62.9751ZM441.865 55.1622V57.2141L436.814 62.3438V60.3708L441.865 55.1622ZM460.726 59.187L464.909 55.1622C465.382 55.4779 465.619 55.8462 465.619 56.2671L465.54 56.5827L461.2 60.9233C460.937 60.8706 460.779 60.7128 460.726 60.4497C460.726 60.1867 460.726 59.9762 460.726 59.8184V59.187ZM441.865 50.8217V52.8736L436.814 57.9244V55.8725L441.865 50.8217ZM460.332 55.4779C460.332 55.32 460.358 55.1885 460.411 55.0833C460.411 54.9781 460.437 54.8991 460.489 54.8465L462.857 52.5579C462.962 52.6105 463.094 52.7683 463.252 53.0314C463.409 53.2945 463.488 53.4786 463.488 53.5838L463.567 53.6627C463.567 53.7154 463.541 53.7417 463.488 53.7417C463.488 53.7417 463.488 53.768 463.488 53.8206V53.8995L460.726 56.5827C460.516 56.5301 460.384 56.3723 460.332 56.1092C460.332 55.7935 460.332 55.5831 460.332 55.4779ZM436.498 51.8476C436.498 51.795 436.524 51.6898 436.577 51.5319C436.682 51.3215 436.761 51.19 436.814 51.1373L441.865 46.0865C441.917 46.1392 441.944 46.297 441.944 46.5601C441.944 46.8231 441.944 47.0073 441.944 47.1125C441.944 47.2703 441.944 47.4808 441.944 47.7438C441.944 48.0069 441.917 48.1384 441.865 48.1384C441.865 48.191 441.733 48.3752 441.47 48.6909C441.207 49.0065 440.997 49.2959 440.839 49.559L437.524 52.8736C437.472 52.9262 437.34 53.0051 437.13 53.1103C436.972 53.1629 436.866 53.1892 436.814 53.1892C436.761 53.084 436.682 52.8736 436.577 52.5579C436.524 52.1896 436.498 51.9528 436.498 51.8476ZM460.489 50.506C460.489 50.506 460.542 50.4797 460.647 50.4271L460.726 50.506C460.831 50.506 460.963 50.6112 461.121 50.8217C461.331 50.9795 461.436 51.0847 461.436 51.1373L461.594 51.3741L461.436 51.5319C461.384 51.5845 461.226 51.7424 460.963 52.0054C460.753 52.2685 460.595 52.4527 460.489 52.5579V50.506ZM441.549 42.0617C441.812 42.5878 441.944 43.0613 441.944 43.4822C441.944 43.5348 441.917 43.5611 441.865 43.5611C441.865 43.5611 441.865 43.5875 441.865 43.6401V43.7979L436.498 49.0855V47.1125L441.549 42.0617ZM441.549 37.3266V39.2995L436.498 44.3503V42.3774L441.549 37.3266ZM441.549 32.986V34.959L436.498 40.0098V38.0368L441.549 32.986ZM441.549 28.172V29.1979C441.549 29.7241 441.523 30.0924 441.47 30.3028C441.47 30.5133 441.26 30.8289 440.839 31.2498C440.733 31.3551 440.523 31.5918 440.207 31.9601C439.892 32.2758 439.55 32.6178 439.181 32.986C438.813 33.3017 438.471 33.6174 438.155 33.9331C437.84 34.2487 437.629 34.4592 437.524 34.5644C437.419 34.6696 437.235 34.8012 436.972 34.959C436.709 35.1169 436.551 35.2221 436.498 35.2747V33.2228L441.549 28.172ZM441.549 23.7526V25.8044L436.498 30.9342V28.8034L441.549 23.7526ZM441.233 19.412C441.444 19.4646 441.549 19.6488 441.549 19.9645C441.549 20.2275 441.549 20.4117 441.549 20.5169V21.1482L436.104 26.5147V24.4628L441.233 19.412ZM441.233 14.9926V16.9656L436.104 22.1742V20.1223L441.233 14.9926ZM435.788 16.0185C435.788 15.9133 435.814 15.8081 435.867 15.7029C435.972 15.545 436.051 15.4398 436.104 15.3872L441.233 10.3364V11.3623C441.233 11.6254 441.233 11.9148 441.233 12.2304C441.233 12.4935 441.102 12.7302 440.839 12.9407L436.498 17.4391H436.104C436.051 17.4391 435.972 17.2549 435.867 16.8866C435.814 16.5183 435.788 16.229 435.788 16.0185ZM440.839 6.15369C441.102 6.57459 441.233 6.91657 441.233 7.17963C441.233 7.60053 441.102 7.94252 440.839 8.20558L435.788 13.3353V11.3623L440.839 6.15369ZM440.839 2.04992V3.54937L435.788 8.60017L436.104 6.78504L440.839 2.04992ZM523.151 69.6043V69.9989L518.337 74.813C518.074 75.0234 517.811 75.1023 517.548 75.0497C517.337 75.0497 517.1 75.0497 516.837 75.0497H515.969L521.415 69.6043H523.151ZM517.39 69.0519H517.469H517.627C517.732 69.0519 517.942 69.0782 518.258 69.1308C518.626 69.1834 518.863 69.236 518.968 69.2886L513.602 74.813H513.207C512.944 74.813 512.707 74.7866 512.497 74.734C512.339 74.734 512.155 74.6025 511.944 74.3394L517.39 69.0519ZM528.438 69.2886C528.333 69.4465 528.123 69.6832 527.807 69.9989C527.491 70.3146 527.149 70.6566 526.781 71.0249C526.465 71.3931 526.15 71.7351 525.834 72.0508C525.518 72.4191 525.282 72.6558 525.124 72.7611C524.493 73.3398 523.809 73.7607 523.072 74.0238C522.388 74.2868 521.599 74.5499 520.704 74.813L525.755 69.6043C525.808 69.6043 526.045 69.578 526.465 69.5254C526.886 69.4728 527.228 69.3939 527.491 69.2886H527.965H528.438ZM513.917 68.0259C513.97 67.9733 514.128 67.9733 514.391 68.0259C514.654 68.1312 514.838 68.2364 514.943 68.3416C514.996 68.3416 515.049 68.3679 515.101 68.4205C515.206 68.5258 515.285 68.5784 515.338 68.5784L510.208 73.787H509.656C509.551 73.787 509.366 73.787 509.103 73.787C508.84 73.787 508.656 73.6555 508.551 73.3924L513.917 68.0259ZM510.208 67C510.261 66.9474 510.445 66.9737 510.761 67.0789C511.129 67.1841 511.418 67.2631 511.629 67.3157L511.787 67.4735L511.944 67.6313L506.894 72.7611H506.262C505.999 72.7611 505.736 72.7348 505.473 72.6821C505.263 72.6821 505.052 72.5769 504.842 72.3665L510.208 67ZM507.13 65.5795H507.446C507.657 65.5795 507.893 65.6058 508.156 65.6584C508.419 65.711 508.551 65.8425 508.551 66.053V66.2897L503.106 71.7351L501.843 71.0249L507.13 65.5795ZM504.526 63.5276H504.605H504.842C504.894 63.6328 505 63.7643 505.157 63.9222C505.368 64.08 505.499 64.1852 505.552 64.2378V64.4746V64.5535L500.107 69.9989L499.081 69.0519L504.526 63.5276ZM502.79 58.3189C502.79 58.0033 502.79 57.7402 502.79 57.5298C502.79 57.3193 502.895 57.0826 503.106 56.8195C503.158 56.7669 503.316 56.609 503.579 56.346C503.842 56.0303 504.105 55.7146 504.368 55.399C504.684 55.0833 504.973 54.7676 505.236 54.4519C505.499 54.1363 505.71 53.8995 505.868 53.7417L508.156 51.453C508.262 51.4004 508.472 51.2952 508.788 51.1373C509.156 50.9269 509.419 50.7954 509.577 50.7428H509.893H510.208C511.734 52.2159 513.549 53.5575 515.654 54.7676C517.758 55.9251 519.915 56.5038 522.125 56.5038C522.335 56.5038 522.598 56.4512 522.914 56.346C523.282 56.1881 523.624 56.004 523.94 55.7935C524.256 55.5305 524.519 55.2674 524.729 55.0044C524.992 54.7413 525.124 54.4519 525.124 54.1363C525.124 53.7154 525.019 53.1629 524.808 52.479C524.65 51.7424 524.414 51.1636 524.098 50.7428L520.389 47.0336C520.231 46.9283 519.81 46.6653 519.126 46.2444C518.442 45.7709 517.732 45.2974 516.995 44.8238C516.259 44.3503 515.548 43.9031 514.864 43.4822C514.18 43.0613 513.76 42.7983 513.602 42.693C513.391 42.5352 512.944 42.1932 512.26 41.6671C511.576 41.141 511.129 40.799 510.919 40.6412C510.813 40.5885 510.629 40.4307 510.366 40.1676C510.103 39.9046 509.945 39.7204 509.893 39.6152C509.787 39.51 509.551 39.2206 509.182 38.7471C508.867 38.2736 508.498 37.7475 508.077 37.1687C507.657 36.59 507.236 36.0376 506.815 35.5114C506.394 34.9327 506.078 34.4855 505.868 34.1698C505.131 33.1176 504.658 32.039 504.447 30.9342C504.237 29.8293 504.132 28.6455 504.132 27.3828C504.132 25.0153 504.526 22.9897 505.315 21.3061C506.157 19.6225 507.288 18.2809 508.709 17.2812C510.129 16.229 511.787 15.4661 513.681 14.9926C515.627 14.5191 517.706 14.2823 519.915 14.2823C523.598 14.2823 526.781 14.8874 529.464 16.0974C532.148 17.3075 534.752 19.2805 537.277 22.0163C537.435 22.2794 537.672 22.6214 537.988 23.0423C538.356 23.4106 538.54 23.6473 538.54 23.7526C538.645 23.7526 538.698 23.8578 538.698 24.0682C538.698 24.2261 538.698 24.3313 538.698 24.3839C538.698 24.4365 538.698 24.5681 538.698 24.7785C538.698 24.9363 538.645 25.0416 538.54 25.0942C538.435 25.1994 538.251 25.4099 537.988 25.7255C537.777 25.9886 537.514 26.278 537.198 26.5936C536.935 26.9093 536.672 27.225 536.409 27.5407C536.199 27.8037 536.041 27.9879 535.936 28.0931C535.673 28.3561 535.278 28.7507 534.752 29.2769C534.278 29.7504 533.752 30.2502 533.174 30.7763C532.647 31.2498 532.121 31.6707 531.595 32.039C531.069 32.4073 530.622 32.5915 530.254 32.5915H529.78C529.57 32.4336 529.201 32.1969 528.675 31.8812C528.202 31.5129 527.676 31.1446 527.097 30.7763C526.518 30.408 525.966 30.0661 525.44 29.7504C524.966 29.4347 524.624 29.2243 524.414 29.119C523.835 28.8034 523.23 28.514 522.598 28.2509C522.02 27.9352 521.388 27.7774 520.704 27.7774C520.126 27.7774 519.678 27.9616 519.363 28.3298C519.1 28.6981 518.968 29.0927 518.968 29.5136C518.968 29.8819 518.968 30.1976 518.968 30.4606C518.968 30.6711 519.1 30.9079 519.363 31.1709C519.415 31.2761 519.573 31.4603 519.836 31.7233C520.099 31.9864 520.362 32.2495 520.626 32.5125C520.941 32.7756 521.231 33.0387 521.494 33.3017C521.757 33.5648 521.967 33.7489 522.125 33.8542C522.914 34.5907 523.966 35.2221 525.282 35.7482C526.65 36.2217 527.807 36.6952 528.754 37.1687C530.438 38.0631 531.911 39.1417 533.174 40.4044C534.436 41.6145 535.699 42.9298 536.962 44.3503C538.803 46.4022 539.724 48.7961 539.724 51.5319C539.724 53.0577 539.566 54.4519 539.25 55.7146C538.987 56.9247 538.566 58.0822 537.988 59.187C537.409 60.2393 536.699 61.2652 535.857 62.2649C535.015 63.2645 534.042 64.2642 532.937 65.2638C531.569 66.4739 529.991 67.2894 528.202 67.7103C526.413 68.1312 524.624 68.3416 522.835 68.3416C521.204 68.3416 519.573 68.1049 517.942 67.6313C516.364 67.2104 514.812 66.7632 513.286 66.2897C509.235 65.0796 505.841 62.9225 503.106 59.8184C502.895 59.5553 502.79 59.3186 502.79 59.1081C502.79 58.8977 502.79 58.6346 502.79 58.3189ZM502.08 61.5546H502.316H502.474C502.579 61.6072 502.711 61.7388 502.869 61.9492C503.027 62.107 503.106 62.2123 503.106 62.2649C503.106 62.2649 503.132 62.3175 503.184 62.4227L503.106 62.5806L497.739 68.0259L496.792 67L502.08 61.5546ZM501.133 58.4768C501.133 58.582 501.133 58.7135 501.133 58.8714C501.185 59.0292 501.212 59.1344 501.212 59.187C501.212 59.4501 501.185 59.6869 501.133 59.8973C501.133 60.1078 501.027 60.3182 500.817 60.5287L496.319 64.9481H495.924C495.924 64.5272 496.055 64.0537 496.319 63.5276C497.003 62.7384 497.765 61.8966 498.607 61.0022C499.502 60.1078 500.343 59.266 501.133 58.4768ZM518.653 54.1363L522.125 50.7428L523.151 51.7687L519.994 54.7676H519.915H519.678C519.573 54.7676 519.389 54.715 519.126 54.6098C518.916 54.5045 518.758 54.4519 518.653 54.4519V54.2941V54.1363ZM523.703 53.7417C523.651 53.8469 523.493 54.031 523.23 54.2941C522.967 54.5572 522.783 54.715 522.677 54.7676L522.598 54.8465C522.546 54.8465 522.493 54.8202 522.441 54.7676C522.493 54.715 522.625 54.5572 522.835 54.2941C523.098 54.031 523.282 53.8469 523.388 53.7417H523.624H523.703ZM515.654 52.479L519.678 48.3752C519.678 48.3226 519.757 48.3489 519.915 48.4541C520.126 48.5593 520.284 48.6383 520.389 48.6909C520.389 48.7435 520.441 48.8224 520.547 48.9276C520.599 48.9802 520.652 49.0065 520.704 49.0065V49.2433V49.4011L516.68 53.426C516.574 53.426 516.469 53.3997 516.364 53.3471C516.259 53.2945 516.18 53.2681 516.127 53.2681C516.075 53.2681 516.022 53.2418 515.969 53.1892C515.969 53.084 515.917 53.0051 515.811 52.9525C515.706 52.8999 515.654 52.8472 515.654 52.7946V52.6368V52.479ZM512.891 50.7428L516.995 46.7179H517.153H517.39C517.442 46.7705 517.574 46.8757 517.784 47.0336C518.047 47.1914 518.232 47.3229 518.337 47.4282L513.917 51.7687L513.838 51.8476H513.681C513.628 51.8476 513.602 51.8213 513.602 51.7687C513.549 51.7687 513.444 51.6898 513.286 51.5319C513.128 51.3215 512.997 51.19 512.891 51.1373V50.9006V50.7428ZM506.183 48.3752L511.629 42.9298L512.576 43.9557L507.13 49.4011H507.051H506.894C506.788 49.3485 506.657 49.2433 506.499 49.0855C506.341 48.9276 506.236 48.7961 506.183 48.6909V48.533V48.3752ZM513.917 44.9817H514.154C514.575 44.9817 514.97 45.2184 515.338 45.692C515.285 45.7972 515.154 45.9813 514.943 46.2444C514.786 46.4548 514.68 46.6127 514.628 46.7179C514.47 46.9283 514.233 47.1914 513.917 47.5071C513.602 47.7701 513.312 48.0595 513.049 48.3752C512.786 48.6383 512.523 48.875 512.26 49.0855C512.05 49.2959 511.944 49.4011 511.944 49.4011H509.893V49.0065L513.917 44.9817ZM503.5 46.4022L508.867 40.9568L509.893 41.9828L504.526 47.4282H504.368H504.132C504.079 47.3229 503.947 47.1914 503.737 47.0336C503.579 46.8757 503.5 46.7705 503.5 46.7179C503.448 46.7179 503.421 46.6916 503.421 46.639V46.4811L503.5 46.4022ZM506.894 38.5893C506.894 38.5893 506.946 38.563 507.051 38.5104L507.13 38.5893C507.236 38.5893 507.315 38.6419 507.367 38.7471C507.42 38.7997 507.472 38.8523 507.525 38.9049C507.735 39.2206 507.841 39.4574 507.841 39.6152L502.474 44.9817L502.316 45.0606L502.08 44.9817C501.974 44.8765 501.817 44.6923 501.606 44.4293C501.448 44.1662 501.422 44.0084 501.527 43.9557L506.894 38.5893ZM504.842 35.906H505C505.578 35.906 505.868 36.248 505.868 36.932V37.1687L500.817 42.3774H500.58H500.422C500.317 42.2721 500.133 42.088 499.87 41.8249C499.659 41.5619 499.502 41.404 499.396 41.3514L504.842 35.906ZM498.055 38.1947L503.106 33.1439H503.342C503.605 33.1439 503.737 33.2754 503.737 33.5385C503.79 33.8015 503.816 34.0383 503.816 34.2487V34.5644L498.765 39.6152H498.607C498.344 39.6152 498.186 39.51 498.134 39.2995C498.081 39.0365 498.055 38.8523 498.055 38.7471V38.1947ZM502.474 29.119C502.685 29.5399 502.79 30.0134 502.79 30.5396V30.8552L497.344 36.2217V34.1698L502.474 29.119ZM528.438 35.1958C528.702 34.8801 528.912 34.6433 529.07 34.4855C529.228 34.2751 529.464 34.1698 529.78 34.1698H530.175L528.754 35.5904L528.438 35.1958ZM525.124 33.8542C525.176 33.7489 525.387 33.5385 525.755 33.2228C526.124 32.8545 526.36 32.6441 526.465 32.5915C526.518 32.5915 526.544 32.5651 526.544 32.5125C526.544 32.5125 526.571 32.4862 526.623 32.4336C526.781 32.4336 527.018 32.5388 527.334 32.7493C527.702 32.9071 527.886 33.1176 527.886 33.3806C527.886 33.4333 527.86 33.4596 527.807 33.4596C527.754 33.4596 527.728 33.4859 527.728 33.5385C527.465 33.8542 527.228 34.0646 527.018 34.1698C526.86 34.2224 526.65 34.2487 526.387 34.2487C526.124 34.2487 525.887 34.2487 525.676 34.2487C525.518 34.1961 525.334 34.0646 525.124 33.8542ZM523.703 30.8552H523.94C524.361 30.8552 524.756 31.092 525.124 31.5655C525.019 31.6707 524.782 31.8812 524.414 32.1969C524.098 32.5125 523.861 32.723 523.703 32.8282H523.388C523.125 32.8282 522.914 32.8019 522.756 32.7493C522.651 32.6441 522.546 32.4336 522.441 32.1179L523.703 30.8552ZM502.474 26.8304L497.739 31.5655C497.739 31.5129 497.713 31.4866 497.66 31.4866C497.66 31.434 497.66 31.3551 497.66 31.2498V31.0131C497.66 30.6448 497.713 30.2502 497.818 29.8293C497.923 29.4084 498.107 29.0664 498.37 28.8034L502.79 24.3839L502.474 26.8304ZM522.204 29.4347C522.204 29.4873 522.178 29.5399 522.125 29.5925C522.125 29.5925 522.125 29.6188 522.125 29.6715V29.8293C522.02 29.9345 521.836 30.1187 521.573 30.3817C521.309 30.5922 521.125 30.75 521.02 30.8552C520.441 30.5396 520.152 30.0661 520.152 29.4347H522.204Z" fill="#E3603C"/>
</svg>
