<svg width="16" height="14" viewBox="0 0 16 14" fill="none" xmlns="http://www.w3.org/2000/svg">
<path d="M3.78784 0L3.37045 0.0453353L2.96087 0.132879L2.56066 0.261069L2.17922 0.431467L1.81654 0.642511L1.47887 0.887947L1.16778 1.16778L0.88482 1.47887L0.639384 1.8181L0.431467 2.18079L0.261069 2.56379L0.129753 2.96243L0.043772 3.37201L0 3.78784V4.20837L0.043772 4.62577L0.129753 5.03378L0.261069 5.43242L0.431467 5.81543L0.639384 6.17655L0.88482 6.51734L1.16778 6.82844L7.99621 13.66L14.8278 6.82844L15.1076 6.51734L15.3562 6.17655L15.5641 5.81543L15.7345 5.43242L15.8658 5.03378L15.9518 4.62577L15.9956 4.20837V3.78784L15.9518 3.37201L15.8658 2.96243L15.7345 2.56379L15.5641 2.18079L15.3562 1.8181L15.1076 1.47887L14.8278 1.16778L14.5167 0.887947L14.179 0.642511L13.8148 0.431467L13.4318 0.261069L13.0347 0.132879L12.6251 0.0453353L12.2077 0H11.7903L11.3745 0.0453353L10.9633 0.132879L10.5647 0.261069L10.1817 0.431467L9.82057 0.642511L9.48133 0.887947L9.17024 1.16778L7.99621 2.3418L6.82531 1.16778L6.51422 0.887947L6.17498 0.642511L5.8123 0.431467L5.4293 0.261069L5.03222 0.132879L4.62108 0.0453353L4.20524 0H3.78784Z" fill="#222222"/>
</svg>
