<svg width="16" height="14" viewBox="0 0 16 14" fill="none" xmlns="http://www.w3.org/2000/svg">
<path d="M4.17871 0.5L4.53906 0.539062L4.90723 0.617188L5.25293 0.729492L5.58691 0.878906L5.89551 1.05762L6.19922 1.27734L6.48145 1.53027L7.64258 2.69531L7.99609 3.0498L8.34961 2.69531L9.51367 1.53027L9.79492 1.27734L10.0918 1.0625L10.4072 0.87793L10.7393 0.729492L11.0859 0.617188L11.4551 0.539062L11.8174 0.5H12.1807L12.542 0.538086L12.9092 0.617188L13.2559 0.729492L13.5898 0.878906L13.9043 1.06055L14.2002 1.27539L14.4727 1.52051L14.7168 1.79199L14.9365 2.09082L15.1201 2.41309L15.2676 2.74414L15.3809 3.09082L15.4551 3.44141L15.4951 3.81152V4.18359L15.4551 4.55469L15.3838 4.89648L15.2686 5.24805L15.1172 5.58887L14.9355 5.90332L14.7197 6.2002L14.4639 6.48438L7.99609 12.9521L1.52832 6.48145L1.27246 6.2002L1.06055 5.90625L0.87793 5.58887L0.729492 5.25586L0.613281 4.9043L0.538086 4.54492L0.5 4.18359V3.81152L0.538086 3.4502L0.613281 3.09082L0.730469 2.7373L0.87793 2.40625L1.05664 2.09375L1.27148 1.79688L1.52441 1.51855L1.79883 1.27246L2.08984 1.06152L2.40723 0.875977L2.74023 0.727539L3.08984 0.616211L3.45117 0.539062L3.81445 0.5H4.17871Z" stroke="white"/>
</svg>
