<svg width="15" height="16" viewBox="0 0 15 16" fill="none" xmlns="http://www.w3.org/2000/svg">
<path d="M6.7742 6.42307C6.7742 6.82471 7.09917 7.15032 7.5 7.15032C7.90083 7.15032 8.2258 6.82471 8.2258 6.42307H6.7742ZM8.2258 0.72725C8.2258 0.325604 7.90083 0 7.5 0C7.09917 0 6.7742 0.325604 6.7742 0.72725H8.2258ZM4.8976 3.30808C5.26242 3.14163 5.42345 2.71036 5.25738 2.34483C5.09123 1.97929 4.66083 1.81791 4.29602 1.98436L4.8976 3.30808ZM0.725894 8.63973L0 8.63595L0.000145357 8.64817L0.725894 8.63973ZM7.5 15.2723L7.50832 14.545C7.50281 14.545 7.49719 14.545 7.49168 14.545L7.5 15.2723ZM14.2741 8.63973L15 8.64817L14.9999 8.63595L14.2741 8.63973ZM10.704 1.98436C10.3391 1.81791 9.90878 1.97929 9.74262 2.34483C9.57655 2.71036 9.73759 3.14163 10.1024 3.30808L10.704 1.98436ZM8.2258 6.42307V0.72725H6.7742V6.42307H8.2258ZM4.29602 1.98436C1.6921 3.17247 0.0149901 5.76904 0 8.63595L1.45168 8.64351C1.46371 6.34392 2.80889 4.2611 4.8976 3.30808L4.29602 1.98436ZM0.000145357 8.64817C0.0478544 12.7556 3.4092 16.0466 7.50832 15.9995L7.49168 14.545C4.19408 14.583 1.49002 11.9354 1.45164 8.63129L0.000145357 8.64817ZM7.49168 15.9995C11.5908 16.0466 14.9524 12.7556 15 8.64817L13.5484 8.63129C13.51 11.9354 10.806 14.583 7.50832 14.545L7.49168 15.9995ZM14.9999 8.63595C14.9849 5.76904 13.3079 3.17247 10.704 1.98436L10.1024 3.30808C12.1911 4.2611 13.5363 6.34392 13.5483 8.64351L14.9999 8.63595Z" fill="#70B77E"/>
</svg>
